<?xml version="1.0" ?><svg fill="none" height="24" viewBox="0 0 24 24" width="24" xmlns="http://www.w3.org/2000/svg"><path clip-rule="evenodd" d="M12 4C7.58175 4 4.00003 7.58172 4.00003 12C4.00003 13.5758 4.45461 15.0424 5.2394 16.2793C5.40047 16.5332 5.43878 16.846 5.3437 17.1313L4.58117 19.4189L6.86877 18.6563C7.15399 18.5613 7.46686 18.5996 7.72073 18.7606C8.95767 19.5454 10.4242 20 12 20C16.4183 20 20 16.4183 20 12C20 7.58172 16.4183 4 12 4ZM2.00003 12C2.00003 6.47715 6.47718 2 12 2C17.5229 2 22 6.47715 22 12C22 17.5228 17.5229 22 12 22C10.2069 22 8.52163 21.5272 7.06485 20.6992L3.31625 21.9487C2.95692 22.0685 2.56075 21.9749 2.29292 21.7071C2.02509 21.4393 1.93157 21.0431 2.05134 20.6838L3.30088 16.9352C2.47283 15.4784 2.00003 13.7931 2.00003 12Z" fill="black" fill-rule="evenodd"/><path clip-rule="evenodd" d="M6.20334 10.4478C6.46664 9.46139 6.98555 8.52909 7.75729 7.75736C8.52902 6.98562 9.46132 6.46672 10.4477 6.20341L10.9635 8.13574C10.3078 8.31077 9.68795 8.65513 9.1715 9.17157C8.65506 9.68802 8.3107 10.3079 8.13567 10.9636L6.20334 10.4478ZM13.5522 6.20341C14.5385 6.46672 15.4708 6.98562 16.2426 7.75736C17.0143 8.52909 17.5332 9.46139 17.7965 10.4477L15.8642 10.9636C15.6892 10.3079 15.3448 9.68802 14.8284 9.17157C14.3119 8.65513 13.692 8.31077 13.0363 8.13574L13.5522 6.20341ZM7.75729 16.2426C6.98555 15.4709 6.46664 14.5386 6.20334 13.5523L8.13567 13.0364C8.3107 13.6921 8.65506 14.312 9.1715 14.8284C9.68795 15.3449 10.3078 15.6892 10.9635 15.8643L10.4477 17.7966C9.46132 17.5333 8.52902 17.0144 7.75729 16.2426ZM16.2426 16.2426C15.4708 17.0144 14.5385 17.5333 13.5522 17.7966L13.0363 15.8643C13.692 15.6892 14.3119 15.3449 14.8284 14.8284C15.3448 14.312 15.6892 13.6921 15.8642 13.0364L17.7965 13.5522C17.5332 14.5386 17.0143 15.4709 16.2426 16.2426Z" fill="black" fill-rule="evenodd"/></svg>