<?xml version="1.0" ?><svg fill="none" height="24" viewBox="0 0 24 24" width="24" xmlns="http://www.w3.org/2000/svg"><path clip-rule="evenodd" d="M2.00003 12C2.00003 6.47715 6.47718 2 12 2C17.5229 2 22 6.47715 22 12C22 17.5228 17.5229 22 12 22C10.2069 22 8.52163 21.5272 7.06485 20.6992L3.31625 21.9487C2.95692 22.0685 2.56075 21.9749 2.29292 21.7071C2.02509 21.4393 1.93157 21.0431 2.05134 20.6838L3.30088 16.9352C2.47283 15.4784 2.00003 13.7931 2.00003 12ZM7.75714 7.75736C6.9854 8.52909 6.46649 9.46139 6.20318 10.4478L8.13552 10.9636C8.31055 10.3079 8.6549 9.68802 9.17135 9.17157C9.6878 8.65513 10.3077 8.31077 10.9634 8.13574L10.4475 6.20341C9.46117 6.46672 8.52887 6.98562 7.75714 7.75736ZM16.2424 7.75736C15.4707 6.98562 14.5384 6.46671 13.552 6.20341L13.0362 8.13574C13.6919 8.31077 14.3118 8.65513 14.8282 9.17157C15.3447 9.68802 15.689 10.3079 15.864 10.9636L17.7964 10.4478C17.5331 9.46139 17.0142 8.52909 16.2424 7.75736ZM6.20318 13.5522C6.46649 14.5386 6.9854 15.4709 7.75714 16.2426C8.52887 17.0144 9.46117 17.5333 10.4475 17.7966L10.9634 15.8643C10.3077 15.6892 9.6878 15.3449 9.17135 14.8284C8.6549 14.312 8.31055 13.6921 8.13552 13.0364L6.20318 13.5522ZM13.552 17.7966C14.5384 17.5333 15.4707 17.0144 16.2424 16.2426C17.0142 15.4709 17.5331 14.5386 17.7964 13.5522L15.864 13.0364C15.689 13.6921 15.3447 14.312 14.8282 14.8284C14.3118 15.3449 13.6919 15.6892 13.0362 15.8643L13.552 17.7966Z" fill="black" fill-rule="evenodd"/></svg>