<svg xmlns="http://www.w3.org/2000/svg" width="95" height="96" viewBox="0 0 95 96" fill="none">
  <g filter="url(#filter0_d_1_1030)">
    <path d="M47.5 94C73.1812 94 94 73.1812 94 47.5C94 21.8188 73.1812 1 47.5 1C21.8188 1 1 21.8188 1 47.5C1 73.1812 21.8188 94 47.5 94Z" fill="black"/>
  </g>
  <path d="M47.5 94C73.1812 94 94 73.1812 94 47.5C94 21.8188 73.1812 1 47.5 1C21.8188 1 1 21.8188 1 47.5C1 73.1812 21.8188 94 47.5 94Z" fill="#F7931A"/>
  <path d="M47.5625 90.0054C71.0031 90.0054 90.0054 71.0031 90.0054 47.5625C90.0054 24.1219 71.0031 5.11951 47.5625 5.11951C24.1219 5.11951 5.11951 24.1219 5.11951 47.5625C5.11951 71.0031 24.1219 90.0054 47.5625 90.0054Z" fill="#DD7F0D"/>
  <path style="mix-blend-mode:soft-light" d="M47.5 94C73.1812 94 94 73.1812 94 47.5C94 21.8188 73.1812 1 47.5 1C21.8188 1 1 21.8188 1 47.5C1 73.1812 21.8188 94 47.5 94Z" fill="url(#paint0_linear_1_1030)"/>
  <g filter="url(#filter1_d_1_1030)">
    <path d="M69.786 41.362C70.7594 34.8644 65.8087 31.3707 59.0445 29.0395L61.2393 20.2355L55.8825 18.9025L53.7435 27.474C52.3361 27.1206 50.8915 26.792 49.45 26.4634L51.6045 17.8361L46.2477 16.5L44.0529 25.3009C42.8873 25.0343 41.7403 24.7739 40.6305 24.4949L40.6367 24.467L33.2463 22.6225L31.8203 28.3451C31.8203 28.3451 35.7976 29.2565 35.7139 29.3123C37.8839 29.8548 38.2745 31.2901 38.2094 32.4309L35.7108 42.4594C35.8596 42.4966 36.0518 42.5524 36.2688 42.6361L35.7015 42.4966L32.1985 56.5458C31.9319 57.203 31.2592 58.1919 29.7402 57.8168C29.796 57.8943 25.8466 56.8465 25.8466 56.8465L23.1868 62.9783L30.1618 64.7174C31.4576 65.0429 32.7286 65.3839 33.9779 65.7032L31.7614 74.6064L37.1151 75.9394L39.3099 67.1354C40.7731 67.5291 42.1929 67.8949 43.5817 68.2421L41.3931 77.0089L46.7499 78.3419L48.9664 69.4573C58.1052 71.1871 64.9748 70.4896 67.8671 62.225C70.1983 55.5724 67.7524 51.7315 62.9443 49.2298C66.4473 48.4238 69.0823 46.1205 69.786 41.362ZM57.541 58.5298C55.8887 65.1855 44.6822 61.5864 41.049 60.6843L43.994 48.8888C47.6272 49.7971 59.2739 51.592 57.541 58.5298ZM59.1995 41.2659C57.6898 47.3202 48.365 44.2419 45.3425 43.4886L48.0085 32.7936C51.031 33.5469 60.7743 34.9512 59.1995 41.2659Z" fill="black"/>
  </g>
  <path d="M69.786 41.362C70.7594 34.8644 65.8087 31.3707 59.0445 29.0395L61.2393 20.2355L55.8825 18.9025L53.7435 27.474C52.3361 27.1206 50.8915 26.792 49.45 26.4634L51.6045 17.8361L46.2477 16.5L44.0529 25.3009C42.8873 25.0343 41.7403 24.7739 40.6305 24.4949L40.6367 24.467L33.2463 22.6225L31.8203 28.3451C31.8203 28.3451 35.7976 29.2565 35.7139 29.3123C37.8839 29.8548 38.2745 31.2901 38.2094 32.4309L35.7108 42.4594C35.8596 42.4966 36.0518 42.5524 36.2688 42.6361L35.7015 42.4966L32.1985 56.5458C31.9319 57.203 31.2592 58.1919 29.7402 57.8168C29.796 57.8943 25.8466 56.8465 25.8466 56.8465L23.1868 62.9783L30.1618 64.7174C31.4576 65.0429 32.7286 65.3839 33.9779 65.7032L31.7614 74.6064L37.1151 75.9394L39.3099 67.1354C40.7731 67.5291 42.1929 67.8949 43.5817 68.2421L41.3931 77.0089L46.7499 78.3419L48.9664 69.4573C58.1052 71.1871 64.9748 70.4896 67.8671 62.225C70.1983 55.5724 67.7524 51.7315 62.9443 49.2298C66.4473 48.4238 69.0823 46.1205 69.786 41.362ZM57.541 58.5298C55.8887 65.1855 44.6822 61.5864 41.049 60.6843L43.994 48.8888C47.6272 49.7971 59.2739 51.592 57.541 58.5298ZM59.1995 41.2659C57.6898 47.3202 48.365 44.2419 45.3425 43.4886L48.0085 32.7936C51.031 33.5469 60.7743 34.9512 59.1995 41.2659Z" fill="white"/>
  <defs>
    <filter id="filter0_d_1_1030" x="0" y="0.5" width="95" height="95" filterUnits="userSpaceOnUse" color-interpolation-filters="sRGB">
      <feFlood flood-opacity="0" result="BackgroundImageFix"/>
      <feColorMatrix in="SourceAlpha" type="matrix" values="0 0 0 0 0 0 0 0 0 0 0 0 0 0 0 0 0 0 127 0" result="hardAlpha"/>
      <feOffset dy="0.5"/>
      <feGaussianBlur stdDeviation="0.5"/>
      <feComposite in2="hardAlpha" operator="out"/>
      <feColorMatrix type="matrix" values="0 0 0 0 0 0 0 0 0 0 0 0 0 0 0 0 0 0 0.199474 0"/>
      <feBlend mode="normal" in2="BackgroundImageFix" result="effect1_dropShadow_1_1030"/>
      <feBlend mode="normal" in="SourceGraphic" in2="effect1_dropShadow_1_1030" result="shape"/>
    </filter>
    <filter id="filter1_d_1_1030" x="22.1868" y="16" width="48.7216" height="63.8419" filterUnits="userSpaceOnUse" color-interpolation-filters="sRGB">
      <feFlood flood-opacity="0" result="BackgroundImageFix"/>
      <feColorMatrix in="SourceAlpha" type="matrix" values="0 0 0 0 0 0 0 0 0 0 0 0 0 0 0 0 0 0 127 0" result="hardAlpha"/>
      <feOffset dy="0.5"/>
      <feGaussianBlur stdDeviation="0.5"/>
      <feColorMatrix type="matrix" values="0 0 0 0 0 0 0 0 0 0 0 0 0 0 0 0 0 0 0.204257 0"/>
      <feBlend mode="normal" in2="BackgroundImageFix" result="effect1_dropShadow_1_1030"/>
      <feBlend mode="normal" in="SourceGraphic" in2="effect1_dropShadow_1_1030" result="shape"/>
    </filter>
    <linearGradient id="paint0_linear_1_1030" x1="4651" y1="1" x2="4651" y2="9301" gradientUnits="userSpaceOnUse">
      <stop stop-color="white" stop-opacity="0.5"/>
      <stop offset="1" stop-opacity="0.5"/>
    </linearGradient>
  </defs>
</svg>