<svg xmlns="http://www.w3.org/2000/svg" width="104" height="98" viewBox="0 0 104 98" fill="none">
  <g clip-path="url(#clip0_1_1048)">
    <g filter="url(#filter0_d_1_1048)">
      <path d="M52 91.875C78.9239 91.875 100.75 71.3081 100.75 45.9375C100.75 20.5669 78.9239 0 52 0C25.0761 0 3.25 20.5669 3.25 45.9375C3.25 71.3081 25.0761 91.875 52 91.875Z" fill="black"/>
    </g>
    <path d="M52 91.875C78.9239 91.875 100.75 71.3081 100.75 45.9375C100.75 20.5669 78.9239 0 52 0C25.0761 0 3.25 20.5669 3.25 45.9375C3.25 71.3081 25.0761 91.875 52 91.875Z" fill="#7543E3"/>
    <path style="mix-blend-mode:soft-light" d="M52 91.875C78.9239 91.875 100.75 71.3081 100.75 45.9375C100.75 20.5669 78.9239 0 52 0C25.0761 0 3.25 20.5669 3.25 45.9375C3.25 71.3081 25.0761 91.875 52 91.875Z" fill="url(#paint0_linear_1_1048)"/>
    <path d="M52 90.3438C78.0264 90.3438 99.125 70.4624 99.125 45.9375C99.125 21.4126 78.0264 1.53125 52 1.53125C25.9736 1.53125 4.875 21.4126 4.875 45.9375C4.875 70.4624 25.9736 90.3438 52 90.3438Z" stroke="black" stroke-opacity="0.097"/>
    <path fill-rule="evenodd" clip-rule="evenodd" d="M38.662 35.4025C38.545 36.3366 38.4345 37.3196 38.363 38.3027C36.621 39.4848 34.9927 40.6914 33.4815 41.8981C32.7015 42.5228 31.9475 43.1476 31.239 43.7968C25.6457 38.2353 23.2602 33.2342 24.7975 30.6679C26.1495 28.3894 30.6865 27.7432 37.0565 28.9713C37.31 27.8994 37.5602 26.8734 37.8592 25.8904C30.1372 24.3714 24.2482 25.3759 22.0252 29.106C21.4275 30.1067 21.1193 31.2377 21.1315 32.3859V32.4993C21.177 37.7882 26.5167 44.8656 35.4315 51.5419C36.3447 52.234 37.3327 52.9261 38.3402 53.6182C38.5836 56.5493 39.0199 59.4633 39.6467 62.3433C31.9247 64.288 26.3087 63.798 24.7747 61.2286C23.4227 58.9531 25.1192 54.7789 29.38 50.0229L27.157 47.7444C21.8855 53.5509 19.7795 59.0634 22.0025 62.8119C23.5625 65.4487 26.9295 66.7013 31.4665 66.7013C36.0262 66.7013 41.7527 65.4272 48.0317 62.9497C49.3216 62.438 50.5971 61.8947 51.857 61.3204L52 61.25C53.9955 62.1412 55.965 62.9466 57.915 63.6388C58.76 63.9511 59.6082 64.2206 60.4337 64.4871C58.3017 71.9871 55.0485 76.4951 52 76.4951C49.296 76.4951 46.4327 72.9702 44.3462 66.9401C43.3204 67.2908 42.2807 67.6044 41.2295 67.8803C43.7482 75.1599 47.5735 79.625 52 79.625C58.4382 79.625 63.57 70.2048 65.338 56.4725C65.4517 55.5384 65.5427 54.5554 65.6337 53.5938C67.444 52.3688 69.1437 51.0947 70.7232 49.7993C71.4095 49.242 72.0814 48.6692 72.7382 48.0812C78.3542 53.6182 80.7332 58.6408 79.1992 61.2071C77.9415 63.3294 73.7912 64.043 68.1102 63.1273L66.963 62.9252C66.7263 63.9446 66.4597 64.9577 66.1635 65.9632C66.6445 66.052 67.1255 66.1408 67.5837 66.2082C69.2402 66.4889 70.9188 66.6385 72.6017 66.6553C77.207 66.6553 80.483 65.3384 81.9942 62.7935C84.0125 59.4002 82.5467 54.4635 77.8472 48.9296C75.4195 46.0508 72.2572 43.1476 68.5912 40.3791C67.6487 39.6655 66.6672 38.9703 65.6825 38.2812C65.511 36.201 65.2355 34.1294 64.857 32.0736C64.6945 31.2038 64.5352 30.3555 64.3532 29.5317C65.6565 29.1948 66.9207 28.9253 68.133 28.7262C73.8172 27.8075 77.9642 28.5241 79.2253 30.6464C80.5513 32.879 78.9263 36.9644 74.802 41.6286C75.6015 42.3881 76.336 43.1476 77.025 43.8826C77.3127 43.5737 77.587 43.2539 77.8472 42.924C82.524 37.387 84.0125 32.4533 81.9975 29.0601C79.9825 25.6668 74.8702 24.4388 67.6065 25.6209C64.2362 26.1568 60.5475 27.2072 56.719 28.6374C56.5597 28.7017 56.4232 28.7477 56.264 28.8151C54.9802 29.3051 53.6965 29.841 52.4127 30.4229C52.299 30.4657 52.1852 30.5331 52.0682 30.576C50.127 29.6877 48.1471 28.8765 46.1337 28.1444C45.2887 27.832 44.4372 27.5625 43.615 27.2961C45.7405 19.8174 48.997 15.3125 52.0422 15.3125C54.7462 15.3125 57.6322 18.8619 59.7187 24.8889C60.775 24.5521 61.8052 24.2428 62.8387 23.9518C60.242 16.7366 56.42 12.25 51.9707 12.25C45.5552 12.25 40.404 21.6703 38.662 35.4025ZM59.1467 34.2632C59.1012 34.2173 59.033 34.1959 58.9842 34.1714C57.9117 33.5711 56.8067 32.9893 55.757 32.4319C55.8434 32.3849 55.9349 32.3469 56.03 32.3186C57.3365 31.7826 58.643 31.2926 59.904 30.87C60.3395 30.7108 60.775 30.5791 61.1877 30.4443C61.3697 31.2712 61.529 32.0981 61.6915 32.9678C61.8735 33.9723 62.01 34.9982 62.1465 36.0487C61.1552 35.4407 60.1552 34.8455 59.1467 34.2632ZM42.2597 33.0781C42.419 32.1624 42.5782 31.2926 42.7862 30.4443C44.6339 31.0319 46.4534 31.695 48.2397 32.4319C47.1607 32.9893 46.0622 33.5711 44.9865 34.1714C44.9344 34.1939 44.8871 34.225 44.8467 34.2632C43.8165 34.8451 42.809 35.4454 41.8242 36.0487C41.9607 35.0197 42.0972 34.0397 42.2597 33.0781ZM46.5887 55.0454C45.8206 54.6249 45.0642 54.1858 44.3202 53.7285C43.3347 53.1408 42.3649 52.5302 41.4115 51.8971C41.2708 49.9205 41.2014 47.94 41.2035 45.9589C41.2035 44.8871 41.2262 43.8397 41.2717 42.8107C41.3172 41.8521 41.366 40.9364 41.4342 40.0238C43.0592 38.9519 44.7817 37.9015 46.5887 36.8725C47.2777 36.4744 47.9862 36.0916 48.6752 35.7363C49.7737 35.1544 50.8755 34.6185 51.974 34.0826C53.8055 34.9487 55.6018 35.8794 57.3592 36.8725C58.1392 37.3196 58.8932 37.7453 59.6277 38.1894C60.6352 38.7927 61.5972 39.396 62.5397 40.0208C62.751 43.0453 62.7966 46.0782 62.6762 49.1072C62.6307 50.0443 62.5852 50.9814 62.5137 51.8971C60.8887 52.969 59.1695 54.0194 57.3592 55.0454C56.8782 55.3149 56.42 55.5813 55.939 55.8263C54.7235 56.497 53.5112 57.1003 52.3185 57.6791C52.2047 57.7251 52.091 57.7924 51.974 57.8353C50.1445 56.9666 48.3483 56.034 46.5887 55.0454ZM35.269 47.3891C34.6742 46.9206 34.125 46.4275 33.5725 45.9589C34.3297 45.3128 35.1097 44.6421 35.9352 43.9959C36.621 43.4599 37.3327 42.9026 38.0867 42.3666C38.0412 43.2578 38.0217 44.1735 38.0217 45.0892V45.9589C38.0217 47.187 38.0412 48.3722 38.0867 49.5543C37.1195 48.8655 36.1796 48.1433 35.269 47.3891ZM65.9522 46.8532V45.9589C65.9522 44.7339 65.9295 43.5487 65.884 42.3666C67.448 43.4889 68.9473 44.689 70.3755 45.962C69.7807 46.4734 69.16 47.0094 68.5197 47.5239C68.4287 47.5882 68.3345 47.677 68.2435 47.7444C67.4895 48.3477 66.6835 48.9724 65.8612 49.5757C65.9067 48.6846 65.9522 47.7719 65.9522 46.8532ZM42.2825 58.9501C42.1041 57.9277 41.9513 56.9014 41.8242 55.8722C42.809 56.4756 43.7937 57.0544 44.824 57.6362C44.8695 57.6791 44.941 57.7036 44.9865 57.7251C46.0622 58.3284 47.138 58.9072 48.2365 59.4646C48.2365 59.4646 48.217 59.4646 48.217 59.4891C47.1024 59.9409 45.9788 60.3728 44.8467 60.7845C44.6875 60.8488 44.5282 60.8947 44.3657 60.9621C43.8392 61.1398 43.3127 61.3204 42.7862 61.4766C42.5996 60.6389 42.4316 59.7945 42.2825 58.9501ZM58.6202 60.6038C57.643 60.2477 56.6722 59.876 55.7082 59.4891L56.121 59.2869C57.0635 58.7969 57.9995 58.2824 58.9647 57.7679C60.0246 57.1519 61.0787 56.5271 62.127 55.8937C61.9872 56.8982 61.8507 57.9027 61.6915 58.8398C61.529 59.7586 61.347 60.6283 61.1617 61.4981C60.3395 61.2071 59.4912 60.9162 58.6202 60.6038ZM47.8497 45.9589C47.8497 43.7509 49.7055 41.9409 51.9772 41.9409C54.2425 41.9409 56.0982 43.7478 56.0982 45.9589C56.0982 48.1701 54.2457 49.9769 51.974 49.9769C49.7055 49.9769 47.8497 48.1701 47.8497 45.9589Z" fill="white"/>
  </g>
  <defs>
    <filter id="filter0_d_1_1048" x="2.25" y="-0.5" width="99.5" height="93.875" filterUnits="userSpaceOnUse" color-interpolation-filters="sRGB">
      <feFlood flood-opacity="0" result="BackgroundImageFix"/>
      <feColorMatrix in="SourceAlpha" type="matrix" values="0 0 0 0 0 0 0 0 0 0 0 0 0 0 0 0 0 0 127 0" result="hardAlpha"/>
      <feOffset dy="0.5"/>
      <feGaussianBlur stdDeviation="0.5"/>
      <feComposite in2="hardAlpha" operator="out"/>
      <feColorMatrix type="matrix" values="0 0 0 0 0 0 0 0 0 0 0 0 0 0 0 0 0 0 0.199474 0"/>
      <feBlend mode="normal" in2="BackgroundImageFix" result="effect1_dropShadow_1_1048"/>
      <feBlend mode="normal" in="SourceGraphic" in2="effect1_dropShadow_1_1048" result="shape"/>
    </filter>
    <linearGradient id="paint0_linear_1_1048" x1="4878.25" y1="0" x2="4878.25" y2="9187.5" gradientUnits="userSpaceOnUse">
      <stop stop-color="white" stop-opacity="0.5"/>
      <stop offset="1" stop-opacity="0.5"/>
    </linearGradient>
    <clipPath id="clip0_1_1048">
      <rect width="104" height="98" fill="white"/>
    </clipPath>
  </defs>
</svg>