<svg xmlns="http://www.w3.org/2000/svg" width="102" height="101" viewBox="0 0 102 101" fill="none">
  <g clip-path="url(#clip0_1_1065)">
    <g filter="url(#filter0_d_1_1065)">
      <path d="M51.0025 94.6875C77.0848 94.6875 98.2288 73.491 98.2288 47.3438C98.2288 21.1965 77.0848 0 51.0025 0C24.9201 0 3.77621 21.1965 3.77621 47.3438C3.77621 73.491 24.9201 94.6875 51.0025 94.6875Z" fill="black"/>
    </g>
    <path d="M51.0025 94.6875C77.0848 94.6875 98.2288 73.491 98.2288 47.3438C98.2288 21.1965 77.0848 0 51.0025 0C24.9201 0 3.77621 21.1965 3.77621 47.3438C3.77621 73.491 24.9201 94.6875 51.0025 94.6875Z" fill="#DF1A14"/>
    <path style="mix-blend-mode:soft-light" d="M51.0025 94.6875C77.0848 94.6875 98.2288 73.491 98.2288 47.3438C98.2288 21.1965 77.0848 0 51.0025 0C24.9201 0 3.77621 21.1965 3.77621 47.3438C3.77621 73.491 24.9201 94.6875 51.0025 94.6875Z" fill="url(#paint0_linear_1_1065)"/>
    <path d="M51.0025 93.1094C76.2154 93.1094 96.6546 72.6194 96.6546 47.3438C96.6546 22.0681 76.2154 1.57812 51.0025 1.57812C25.7896 1.57812 5.35043 22.0681 5.35043 47.3438C5.35043 72.6194 25.7896 93.1094 51.0025 93.1094Z" stroke="black" stroke-opacity="0.097"/>
    <g filter="url(#filter1_d_1_1065)">
      <path d="M47.4133 33.2259C48.3799 32.9197 49.4787 33.4658 49.8785 34.419C50.8451 36.6346 51.7109 38.9166 52.7121 41.1291C53.3103 42.4579 55.3473 42.6284 56.1439 41.4037C57.4788 39.1881 58.5461 36.8366 59.8464 34.5862C60.9137 33.1912 62.8468 33.8729 64.314 33.7372C65.8473 33.6362 66.9807 35.5773 66.1117 36.9061C61.9118 44.7746 57.6803 52.6116 53.4803 60.4833C52.7782 61.9131 50.4799 61.9131 49.847 60.4138C48.9119 58.1319 48.1784 55.7457 47.2779 53.4638C46.7427 51.9646 44.4443 51.7278 43.6793 53.1576C42.379 55.509 41.2455 57.9614 39.9452 60.2781C39.3124 61.3323 37.9775 61.1619 36.9448 61.1619C35.9436 61.0956 34.7441 61.4017 33.979 60.5496C33.6438 60.2017 33.4325 59.7527 33.3779 59.2722C33.3232 58.7917 33.4283 58.3065 33.6767 57.892C37.6123 50.4306 41.6108 42.9377 45.5463 35.4069C46.0122 34.5547 46.4121 33.4973 47.4133 33.2291V33.2259ZM33.6767 33.8066C34.8428 33.7385 36.0118 33.7385 37.1778 33.8066C38.4781 33.9424 39.3124 35.612 38.6796 36.8051C34.7755 44.197 30.8432 51.5542 26.9454 58.9146C26.4763 59.7352 26.1111 60.8241 25.1099 61.0924C23.945 61.266 22.7454 61.165 21.5774 61.165C20.1448 61.2313 18.9453 59.3565 19.8111 58.0971C23.8789 50.4653 27.9435 42.7988 32.0112 35.1354C32.345 34.4884 32.9117 33.8414 33.6799 33.8066H33.6767ZM75.047 33.8729C76.3126 33.4973 77.6476 33.7719 78.9479 33.6678C79.9459 33.7025 81.2147 33.4973 81.9483 34.3842C82.8487 35.3059 82.578 37.0418 81.4445 37.6226C79.1462 39.0871 76.8793 40.6526 74.5495 42.0855C73.0792 43.105 70.9131 41.369 71.5459 39.6646C72.1126 38.3011 72.9123 37.045 73.5483 35.713C73.9135 35.0313 74.2473 34.1475 75.047 33.8729ZM64.0118 54.2465C64.6792 53.8362 65.5135 53.9751 66.1464 54.316C67.9126 55.1997 69.6789 56.1561 71.4798 57.0082C72.248 57.3491 73.0477 57.9961 73.0792 58.9146C73.2146 60.1424 72.1788 61.3323 70.9792 61.2313C68.4132 61.2313 65.8473 61.2629 63.3128 61.2313C62.0471 61.2313 61.0459 59.7321 61.5119 58.5075C61.8456 57.6206 62.3462 56.8346 62.7461 55.9825C63.0452 55.3386 63.3443 54.5527 64.0118 54.2465Z" fill="black"/>
    </g>
    <path d="M47.4133 33.2259C48.3799 32.9197 49.4787 33.4658 49.8785 34.419C50.8451 36.6346 51.7109 38.9166 52.7121 41.1291C53.3103 42.4579 55.3473 42.6284 56.1439 41.4037C57.4788 39.1881 58.5461 36.8366 59.8464 34.5862C60.9137 33.1912 62.8468 33.8729 64.314 33.7372C65.8473 33.6362 66.9807 35.5773 66.1117 36.9061C61.9118 44.7746 57.6803 52.6116 53.4803 60.4833C52.7782 61.9131 50.4799 61.9131 49.847 60.4138C48.9119 58.1319 48.1784 55.7457 47.2779 53.4638C46.7427 51.9646 44.4443 51.7278 43.6793 53.1576C42.379 55.509 41.2455 57.9614 39.9452 60.2781C39.3124 61.3323 37.9775 61.1619 36.9448 61.1619C35.9436 61.0956 34.7441 61.4017 33.979 60.5496C33.6438 60.2017 33.4325 59.7527 33.3779 59.2722C33.3232 58.7917 33.4283 58.3065 33.6767 57.892C37.6123 50.4306 41.6108 42.9377 45.5463 35.4069C46.0122 34.5547 46.4121 33.4973 47.4133 33.2291V33.2259ZM33.6767 33.8066C34.8428 33.7385 36.0118 33.7385 37.1778 33.8066C38.4781 33.9424 39.3124 35.612 38.6796 36.8051C34.7755 44.197 30.8432 51.5542 26.9454 58.9146C26.4763 59.7352 26.1111 60.8241 25.1099 61.0924C23.945 61.266 22.7454 61.165 21.5774 61.165C20.1448 61.2313 18.9453 59.3565 19.8111 58.0971C23.8789 50.4653 27.9435 42.7988 32.0112 35.1354C32.345 34.4884 32.9117 33.8414 33.6799 33.8066H33.6767ZM75.047 33.8729C76.3126 33.4973 77.6476 33.7719 78.9479 33.6678C79.9459 33.7025 81.2147 33.4973 81.9483 34.3842C82.8487 35.3059 82.578 37.0418 81.4445 37.6226C79.1462 39.0871 76.8793 40.6526 74.5495 42.0855C73.0792 43.105 70.9131 41.369 71.5459 39.6646C72.1126 38.3011 72.9123 37.045 73.5483 35.713C73.9135 35.0313 74.2473 34.1475 75.047 33.8729ZM64.0118 54.2465C64.6792 53.8362 65.5135 53.9751 66.1464 54.316C67.9126 55.1997 69.6789 56.1561 71.4798 57.0082C72.248 57.3491 73.0477 57.9961 73.0792 58.9146C73.2146 60.1424 72.1788 61.3323 70.9792 61.2313C68.4132 61.2313 65.8473 61.2629 63.3128 61.2313C62.0471 61.2313 61.0459 59.7321 61.5119 58.5075C61.8456 57.6206 62.3462 56.8346 62.7461 55.9825C63.0452 55.3386 63.3443 54.5527 64.0118 54.2465Z" fill="white"/>
  </g>
  <defs>
    <filter id="filter0_d_1_1065" x="2.77621" y="-0.5" width="96.4525" height="96.6875" filterUnits="userSpaceOnUse" color-interpolation-filters="sRGB">
      <feFlood flood-opacity="0" result="BackgroundImageFix"/>
      <feColorMatrix in="SourceAlpha" type="matrix" values="0 0 0 0 0 0 0 0 0 0 0 0 0 0 0 0 0 0 127 0" result="hardAlpha"/>
      <feOffset dy="0.5"/>
      <feGaussianBlur stdDeviation="0.5"/>
      <feComposite in2="hardAlpha" operator="out"/>
      <feColorMatrix type="matrix" values="0 0 0 0 0 0 0 0 0 0 0 0 0 0 0 0 0 0 0.199474 0"/>
      <feBlend mode="normal" in2="BackgroundImageFix" result="effect1_dropShadow_1_1065"/>
      <feBlend mode="normal" in="SourceGraphic" in2="effect1_dropShadow_1_1065" result="shape"/>
    </filter>
    <filter id="filter1_d_1_1065" x="18.5191" y="32.6406" width="64.9674" height="30.4065" filterUnits="userSpaceOnUse" color-interpolation-filters="sRGB">
      <feFlood flood-opacity="0" result="BackgroundImageFix"/>
      <feColorMatrix in="SourceAlpha" type="matrix" values="0 0 0 0 0 0 0 0 0 0 0 0 0 0 0 0 0 0 127 0" result="hardAlpha"/>
      <feOffset dy="0.5"/>
      <feGaussianBlur stdDeviation="0.5"/>
      <feColorMatrix type="matrix" values="0 0 0 0 0 0 0 0 0 0 0 0 0 0 0 0 0 0 0.204257 0"/>
      <feBlend mode="normal" in2="BackgroundImageFix" result="effect1_dropShadow_1_1065"/>
      <feBlend mode="normal" in="SourceGraphic" in2="effect1_dropShadow_1_1065" result="shape"/>
    </filter>
    <linearGradient id="paint0_linear_1_1065" x1="4726.4" y1="0" x2="4726.4" y2="9468.75" gradientUnits="userSpaceOnUse">
      <stop stop-color="white" stop-opacity="0.5"/>
      <stop offset="1" stop-opacity="0.5"/>
    </linearGradient>
    <clipPath id="clip0_1_1065">
      <rect width="100.749" height="101" fill="white" transform="translate(0.627808)"/>
    </clipPath>
  </defs>
</svg>