<svg xmlns="http://www.w3.org/2000/svg" width="35" height="35" viewBox="0 0 35 35" fill="none">
  <g filter="url(#filter0_d_1_4424)">
    <path d="M17.5 33.5C26.6127 33.5 34 26.1127 34 17C34 7.8873 26.6127 0.5 17.5 0.5C8.3873 0.5 1 7.8873 1 17C1 26.1127 8.3873 33.5 17.5 33.5Z" fill="black"/>
  </g>
  <path d="M17.5 33.5C26.6127 33.5 34 26.1127 34 17C34 7.8873 26.6127 0.5 17.5 0.5C8.3873 0.5 1 7.8873 1 17C1 26.1127 8.3873 33.5 17.5 33.5Z" fill="#328332"/>
  <path style="mix-blend-mode:soft-light" d="M17.5 33.5C26.6127 33.5 34 26.1127 34 17C34 7.8873 26.6127 0.5 17.5 0.5C8.3873 0.5 1 7.8873 1 17C1 26.1127 8.3873 33.5 17.5 33.5Z" fill="url(#paint0_linear_1_4424)"/>
  <path d="M17.5 32.9501C26.3089 32.9501 33.45 25.809 33.45 17C33.45 8.19111 26.3089 1.05005 17.5 1.05005C8.69105 1.05005 1.54999 8.19111 1.54999 17C1.54999 25.809 8.69105 32.9501 17.5 32.9501Z" stroke="black" stroke-opacity="0.097"/>
  <g filter="url(#filter1_d_1_4424)">
    <path d="M17.4879 17.6083L10.0948 16.9736L17.4868 12.7914L17.4879 17.6083ZM17.4879 22.5143V30.1483C14.9172 26.1465 12.0836 21.7421 9.79999 18.177C12.495 19.695 15.3088 21.2812 17.4879 22.5143ZM17.4879 11.4395L9.79999 15.7295L17.4879 3.80005V11.4395Z" fill="white"/>
    <path d="M24.881 16.9736L17.4879 17.6083V12.7914L24.8799 16.9736H24.881ZM17.4879 22.5154C19.6659 21.2834 22.4786 19.695 25.1747 18.177C22.8911 21.7432 20.0575 26.1476 17.4879 30.1472V22.5154ZM17.4879 11.4395V3.80005L25.1747 15.7295L17.4879 11.4395Z" fill="white" fill-opacity="0.601"/>
    <path opacity="0.2" fill-rule="evenodd" clip-rule="evenodd" d="M17.4879 17.6083L24.8799 16.9736L17.4879 21.1261V17.6083Z" fill="white"/>
    <path opacity="0.603" fill-rule="evenodd" clip-rule="evenodd" d="M17.4868 17.6083L10.0938 16.9736L17.4868 21.1261V17.6083Z" fill="white"/>
  </g>
  <defs>
    <filter id="filter0_d_1_4424" x="0" y="0" width="35" height="35" filterUnits="userSpaceOnUse" color-interpolation-filters="sRGB">
      <feFlood flood-opacity="0" result="BackgroundImageFix"/>
      <feColorMatrix in="SourceAlpha" type="matrix" values="0 0 0 0 0 0 0 0 0 0 0 0 0 0 0 0 0 0 127 0" result="hardAlpha"/>
      <feOffset dy="0.5"/>
      <feGaussianBlur stdDeviation="0.5"/>
      <feComposite in2="hardAlpha" operator="out"/>
      <feColorMatrix type="matrix" values="0 0 0 0 0 0 0 0 0 0 0 0 0 0 0 0 0 0 0.199474 0"/>
      <feBlend mode="normal" in2="BackgroundImageFix" result="effect1_dropShadow_1_4424"/>
      <feBlend mode="normal" in="SourceGraphic" in2="effect1_dropShadow_1_4424" result="shape"/>
    </filter>
    <filter id="filter1_d_1_4424" x="8.79999" y="3.30005" width="17.3748" height="28.3483" filterUnits="userSpaceOnUse" color-interpolation-filters="sRGB">
      <feFlood flood-opacity="0" result="BackgroundImageFix"/>
      <feColorMatrix in="SourceAlpha" type="matrix" values="0 0 0 0 0 0 0 0 0 0 0 0 0 0 0 0 0 0 127 0" result="hardAlpha"/>
      <feOffset dy="0.5"/>
      <feGaussianBlur stdDeviation="0.5"/>
      <feColorMatrix type="matrix" values="0 0 0 0 0 0 0 0 0 0 0 0 0 0 0 0 0 0 0.204257 0"/>
      <feBlend mode="normal" in2="BackgroundImageFix" result="effect1_dropShadow_1_4424"/>
      <feBlend mode="normal" in="SourceGraphic" in2="effect1_dropShadow_1_4424" result="shape"/>
    </filter>
    <linearGradient id="paint0_linear_1_4424" x1="1651" y1="0.5" x2="1651" y2="3300.5" gradientUnits="userSpaceOnUse">
      <stop stop-color="white" stop-opacity="0.5"/>
      <stop offset="1" stop-opacity="0.5"/>
    </linearGradient>
  </defs>
</svg>