<svg xmlns="http://www.w3.org/2000/svg" width="37" height="37" viewBox="0 0 37 37" fill="none">
  <g filter="url(#filter0_d_1_4493)">
    <path d="M18.5 35C27.8888 35 35.5 27.3888 35.5 18C35.5 8.61116 27.8888 1 18.5 1C9.11116 1 1.5 8.61116 1.5 18C1.5 27.3888 9.11116 35 18.5 35Z" fill="black"/>
  </g>
  <path d="M18.5 35C27.8888 35 35.5 27.3888 35.5 18C35.5 8.61116 27.8888 1 18.5 1C9.11116 1 1.5 8.61116 1.5 18C1.5 27.3888 9.11116 35 18.5 35Z" fill="#D59143"/>
  <path style="mix-blend-mode:soft-light" d="M18.5 35C27.8888 35 35.5 27.3888 35.5 18C35.5 8.61116 27.8888 1 18.5 1C9.11116 1 1.5 8.61116 1.5 18C1.5 27.3888 9.11116 35 18.5 35Z" fill="url(#paint0_linear_1_4493)"/>
  <path d="M18.5 34.4333C27.5759 34.4333 34.9333 27.0759 34.9333 18C34.9333 8.9241 27.5759 1.56665 18.5 1.56665C9.4241 1.56665 2.06665 8.9241 2.06665 18C2.06665 27.0759 9.4241 34.4333 18.5 34.4333Z" stroke="black" stroke-opacity="0.097"/>
  <path d="M10.4136 18.2038C9.8923 18.6186 9.42536 19.3576 9.4503 20.4841C9.46616 21.2638 9.8855 21.7988 10.4136 22.1614V23.5532C10.4136 24.4224 10.8375 25.2373 11.5492 25.7371L16.4384 29.0804V11.9966L10.4136 13.7578V18.2038ZM11.726 17.7936C12.7404 18.5359 12.7404 22.9468 12.7404 22.9468C12.7404 22.9468 11.5934 22.8358 10.6448 22.3065C11.4268 22.5694 12.0547 22.5105 12.3278 22.5411L12.346 22.5422H12.3494L12.3641 22.5445L12.4015 22.5479H12.4287C12.4287 22.5479 12.5885 18.6991 11.4234 18.0236C11.2342 17.9579 10.8998 17.9976 10.5315 18.1143C11.0007 17.797 11.4914 17.6904 11.726 17.7936ZM16.8612 24.7488H20.1478V29.0872H16.8612V24.7488ZM16.1166 11.6736L10.4136 13.3056V7.19011C10.4136 6.73338 10.9667 6.50331 11.2897 6.82745L16.4067 11.9648L16.1166 11.6736ZM16.8623 17.7879H20.1478V24.3306H16.8612V17.7879H16.8623ZM20.8834 11.6736L20.6726 11.8855L25.7102 6.82745C25.782 6.75579 25.8734 6.70701 25.9729 6.68726C26.0724 6.66751 26.1755 6.67768 26.2693 6.71648C26.363 6.75527 26.4431 6.82097 26.4995 6.90526C26.556 6.98956 26.5862 7.08868 26.5863 7.19011V13.3056L20.8834 11.6736ZM16.8623 11.9966H20.1478V17.3663H16.8612V11.9966H16.8623ZM26.5863 18.205V13.7578L20.5706 11.9988V29.0872L25.4507 25.7371C25.8015 25.4911 26.0879 25.1642 26.2856 24.784C26.4832 24.4039 26.5864 23.9817 26.5863 23.5532V22.1614C27.1144 21.7976 27.5338 21.2638 27.5496 20.4841C27.5746 19.3564 27.1076 18.6186 26.5863 18.205ZM24.6109 22.6102H24.637L24.654 22.608H24.6585L24.6936 22.6046H24.6959L24.7118 22.6023C24.7617 22.5972 24.8116 22.5915 24.8614 22.5853H24.8682C25.1968 22.5434 25.6003 22.5468 26.218 22.353C26.2633 22.3394 26.3086 22.3246 26.3551 22.3076C25.4065 22.838 24.2596 22.9491 24.2596 22.9491C24.2596 22.9491 24.2596 18.5393 25.2739 17.7958C25.5096 17.6938 25.9992 17.8004 26.4684 18.1188C26.1001 18.001 25.7658 17.9624 25.5765 18.0282C24.4103 18.7014 24.6109 22.6102 24.6109 22.6102Z" fill="white"/>
  <defs>
    <filter id="filter0_d_1_4493" x="0.5" y="0.5" width="36" height="36" filterUnits="userSpaceOnUse" color-interpolation-filters="sRGB">
      <feFlood flood-opacity="0" result="BackgroundImageFix"/>
      <feColorMatrix in="SourceAlpha" type="matrix" values="0 0 0 0 0 0 0 0 0 0 0 0 0 0 0 0 0 0 127 0" result="hardAlpha"/>
      <feOffset dy="0.5"/>
      <feGaussianBlur stdDeviation="0.5"/>
      <feComposite in2="hardAlpha" operator="out"/>
      <feColorMatrix type="matrix" values="0 0 0 0 0 0 0 0 0 0 0 0 0 0 0 0 0 0 0.199474 0"/>
      <feBlend mode="normal" in2="BackgroundImageFix" result="effect1_dropShadow_1_4493"/>
      <feBlend mode="normal" in="SourceGraphic" in2="effect1_dropShadow_1_4493" result="shape"/>
    </filter>
    <linearGradient id="paint0_linear_1_4493" x1="1701.5" y1="1" x2="1701.5" y2="3401" gradientUnits="userSpaceOnUse">
      <stop stop-color="white" stop-opacity="0.5"/>
      <stop offset="1" stop-opacity="0.5"/>
    </linearGradient>
  </defs>
</svg>