<svg xmlns="http://www.w3.org/2000/svg" width="37" height="37" viewBox="0 0 37 37" fill="none">
  <g filter="url(#filter0_d_1_4513)">
    <path d="M18.5 35C27.8888 35 35.5 27.3888 35.5 18C35.5 8.61116 27.8888 1 18.5 1C9.11116 1 1.5 8.61116 1.5 18C1.5 27.3888 9.11116 35 18.5 35Z" fill="black"/>
  </g>
  <path d="M18.5 35C27.8888 35 35.5 27.3888 35.5 18C35.5 8.61116 27.8888 1 18.5 1C9.11116 1 1.5 8.61116 1.5 18C1.5 27.3888 9.11116 35 18.5 35Z" fill="#101341"/>
  <path style="mix-blend-mode:soft-light" d="M18.5 35C27.8888 35 35.5 27.3888 35.5 18C35.5 8.61116 27.8888 1 18.5 1C9.11116 1 1.5 8.61116 1.5 18C1.5 27.3888 9.11116 35 18.5 35Z" fill="url(#paint0_linear_1_4513)"/>
  <path d="M18.5 34.4333C27.5759 34.4333 34.9333 27.0759 34.9333 18C34.9333 8.9241 27.5759 1.56665 18.5 1.56665C9.4241 1.56665 2.06665 8.9241 2.06665 18C2.06665 27.0759 9.4241 34.4333 18.5 34.4333Z" stroke="black" stroke-opacity="0.097"/>
  <g filter="url(#filter1_d_1_4513)">
    <path d="M12.8583 7.80005H24.45L30.4 18L24.45 28.2H12.7551L18.6031 18L12.8571 7.80005H12.8583ZM19.0123 11.3882L22.8101 18L19.0134 24.6119H22.3998L26.1942 18L22.3975 11.3882H19.0134H19.0123Z" fill="black"/>
  </g>
  <path d="M12.8583 7.80005H24.45L30.4 18L24.45 28.2H12.7551L18.6031 18L12.8571 7.80005H12.8583ZM19.0123 11.3882L22.8101 18L19.0134 24.6119H22.3998L26.1942 18L22.3975 11.3882H19.0134H19.0123Z" fill="white"/>
  <g opacity="0.5">
    <g filter="url(#filter2_d_1_4513)">
      <path d="M14.0947 12.3628L10.8058 18L14.0652 23.5873L11.981 27.2242L6.59998 18L12.0275 8.69421L14.0947 12.3628Z" fill="black"/>
    </g>
    <path d="M14.0947 12.3628L10.8058 18L14.0652 23.5873L11.981 27.2242L6.59998 18L12.0275 8.69421L14.0947 12.3628Z" fill="white"/>
  </g>
  <defs>
    <filter id="filter0_d_1_4513" x="0.5" y="0.5" width="36" height="36" filterUnits="userSpaceOnUse" color-interpolation-filters="sRGB">
      <feFlood flood-opacity="0" result="BackgroundImageFix"/>
      <feColorMatrix in="SourceAlpha" type="matrix" values="0 0 0 0 0 0 0 0 0 0 0 0 0 0 0 0 0 0 127 0" result="hardAlpha"/>
      <feOffset dy="0.5"/>
      <feGaussianBlur stdDeviation="0.5"/>
      <feComposite in2="hardAlpha" operator="out"/>
      <feColorMatrix type="matrix" values="0 0 0 0 0 0 0 0 0 0 0 0 0 0 0 0 0 0 0.199474 0"/>
      <feBlend mode="normal" in2="BackgroundImageFix" result="effect1_dropShadow_1_4513"/>
      <feBlend mode="normal" in="SourceGraphic" in2="effect1_dropShadow_1_4513" result="shape"/>
    </filter>
    <filter id="filter1_d_1_4513" x="11.7551" y="7.30005" width="19.6449" height="22.4" filterUnits="userSpaceOnUse" color-interpolation-filters="sRGB">
      <feFlood flood-opacity="0" result="BackgroundImageFix"/>
      <feColorMatrix in="SourceAlpha" type="matrix" values="0 0 0 0 0 0 0 0 0 0 0 0 0 0 0 0 0 0 127 0" result="hardAlpha"/>
      <feOffset dy="0.5"/>
      <feGaussianBlur stdDeviation="0.5"/>
      <feColorMatrix type="matrix" values="0 0 0 0 0 0 0 0 0 0 0 0 0 0 0 0 0 0 0.204257 0"/>
      <feBlend mode="normal" in2="BackgroundImageFix" result="effect1_dropShadow_1_4513"/>
      <feBlend mode="normal" in="SourceGraphic" in2="effect1_dropShadow_1_4513" result="shape"/>
    </filter>
    <filter id="filter2_d_1_4513" x="5.59998" y="8.19421" width="9.49475" height="20.53" filterUnits="userSpaceOnUse" color-interpolation-filters="sRGB">
      <feFlood flood-opacity="0" result="BackgroundImageFix"/>
      <feColorMatrix in="SourceAlpha" type="matrix" values="0 0 0 0 0 0 0 0 0 0 0 0 0 0 0 0 0 0 127 0" result="hardAlpha"/>
      <feOffset dy="0.5"/>
      <feGaussianBlur stdDeviation="0.5"/>
      <feColorMatrix type="matrix" values="0 0 0 0 0 0 0 0 0 0 0 0 0 0 0 0 0 0 0.204257 0"/>
      <feBlend mode="normal" in2="BackgroundImageFix" result="effect1_dropShadow_1_4513"/>
      <feBlend mode="normal" in="SourceGraphic" in2="effect1_dropShadow_1_4513" result="shape"/>
    </filter>
    <linearGradient id="paint0_linear_1_4513" x1="1701.5" y1="1" x2="1701.5" y2="3401" gradientUnits="userSpaceOnUse">
      <stop stop-color="white" stop-opacity="0.5"/>
      <stop offset="1" stop-opacity="0.5"/>
    </linearGradient>
  </defs>
</svg>