<svg xmlns="http://www.w3.org/2000/svg" width="36" height="37" viewBox="0 0 36 37" fill="none">
  <g filter="url(#filter0_d_1_4538)">
    <path d="M18 35C27.3888 35 35 27.3888 35 18C35 8.61116 27.3888 1 18 1C8.61116 1 1 8.61116 1 18C1 27.3888 8.61116 35 18 35Z" fill="black"/>
  </g>
  <path d="M18 35C27.3888 35 35 27.3888 35 18C35 8.61116 27.3888 1 18 1C8.61116 1 1 8.61116 1 18C1 27.3888 8.61116 35 18 35Z" fill="#FF007A"/>
  <path style="mix-blend-mode:soft-light" d="M18 35C27.3888 35 35 27.3888 35 18C35 8.61116 27.3888 1 18 1C8.61116 1 1 8.61116 1 18C1 27.3888 8.61116 35 18 35Z" fill="url(#paint0_linear_1_4538)"/>
  <path d="M18 34.4333C27.0759 34.4333 34.4333 27.0759 34.4333 18C34.4333 8.9241 27.0759 1.56665 18 1.56665C8.9241 1.56665 1.56665 8.9241 1.56665 18C1.56665 27.0759 8.9241 34.4333 18 34.4333Z" stroke="black" stroke-opacity="0.097"/>
  <g filter="url(#filter1_d_1_4538)">
    <path d="M13.7625 6.40247C13.4395 6.3526 13.4259 6.3458 13.5778 6.32313C13.869 6.2778 14.5581 6.34013 15.033 6.45233C16.1402 6.7164 17.1478 7.39073 18.2244 8.58867L18.51 8.906L18.918 8.8414C20.6407 8.56373 22.394 8.78473 23.8594 9.46133C24.2628 9.6472 24.8986 10.0178 24.978 10.1141C25.004 10.1436 25.0505 10.3397 25.0811 10.5482C25.1899 11.2701 25.1355 11.8232 24.9156 12.2369C24.7955 12.4613 24.7887 12.5315 24.8692 12.7242C24.9074 12.8038 24.9671 12.871 25.0417 12.9183C25.1162 12.9656 25.2025 12.991 25.2908 12.9917C25.6557 12.9917 26.0478 12.4023 26.2292 11.5829L26.3017 11.2577L26.4445 11.4197C27.2288 12.3083 27.8442 13.5198 27.9496 14.3811L27.9779 14.6067L27.8453 14.4027C27.6186 14.0513 27.392 13.8111 27.0996 13.6173C26.5737 13.2693 26.0172 13.1515 24.5439 13.0733C23.2134 13.003 22.4597 12.8897 21.714 12.646C20.4435 12.2323 19.8032 11.6804 18.2936 9.70047C17.6238 8.821 17.209 8.3348 16.7976 7.9438C15.8603 7.053 14.94 6.58607 13.7625 6.40247Z" fill="white"/>
    <path d="M25.2783 8.3664C25.3123 7.77707 25.3916 7.38833 25.5526 7.0336C25.616 6.89307 25.6761 6.77747 25.6852 6.77747C25.6751 6.85702 25.6541 6.93482 25.6228 7.00867C25.5061 7.3532 25.4868 7.82467 25.5673 8.37207C25.6693 9.06793 25.7282 9.16767 26.4626 9.91907C26.8083 10.2715 27.2095 10.7158 27.3546 10.9073L27.6186 11.2541L27.3546 11.0059C27.0316 10.7033 26.2881 10.1106 26.1238 10.0267C26.0138 9.97007 25.9968 9.9712 25.9288 10.0381C25.8665 10.1015 25.8529 10.1945 25.845 10.6376C25.8314 11.3267 25.7373 11.7709 25.5095 12.2129C25.3871 12.4509 25.3678 12.4011 25.4789 12.1302C25.5616 11.9285 25.5696 11.8401 25.5696 11.1725C25.5696 9.83067 25.4098 9.5088 24.4748 8.95573C24.1934 8.79248 23.9045 8.64271 23.6089 8.50693C23.4629 8.44835 23.3212 8.37942 23.185 8.30067C23.2111 8.2746 24.1223 8.5398 24.4884 8.68147C25.0346 8.89113 25.1242 8.91833 25.191 8.89227C25.2352 8.87527 25.2568 8.74607 25.2783 8.3664ZM14.3904 10.6614C13.7342 9.75813 13.3284 8.37207 13.4157 7.3362L13.4429 7.01547L13.5925 7.04267C13.8736 7.09367 14.3575 7.27387 14.5842 7.41213C15.2052 7.78953 15.475 8.28707 15.7481 9.5632C15.8286 9.9372 15.934 10.3599 15.9827 10.5039C16.0598 10.7339 16.3544 11.2723 16.5947 11.6225C16.767 11.8741 16.6514 11.9931 16.2706 11.9591C15.688 11.9058 14.8992 11.3618 14.3904 10.6614ZM24.4827 17.3877C21.4148 16.1524 20.3347 15.0803 20.3347 13.2715C20.3347 13.0051 20.3438 12.7875 20.354 12.7875C20.3653 12.7875 20.4843 12.8748 20.618 12.9825C21.2402 13.4811 21.9372 13.6942 23.865 13.9753C24.9995 14.1419 25.6387 14.2756 26.228 14.4705C28.1003 15.0916 29.2586 16.3519 29.5351 18.0677C29.6144 18.5664 29.568 19.5014 29.4376 19.9944C29.3356 20.3843 29.0217 21.0858 28.939 21.113C28.9163 21.1198 28.8936 21.0325 28.8868 20.9113C28.8551 20.2675 28.5298 19.6397 27.9824 19.1693C27.3602 18.6355 26.5261 18.2094 24.4827 17.3877ZM22.3294 17.9C22.2931 17.6811 22.2435 17.4646 22.1809 17.2517L22.1016 17.0183L22.2478 17.1815C22.4484 17.4081 22.6082 17.696 22.7419 18.0813C22.845 18.3749 22.8564 18.4621 22.8552 18.9393C22.8552 19.4085 22.8428 19.5059 22.7476 19.7711C22.6152 20.16 22.3936 20.5124 22.1004 20.8002C21.5394 21.3714 20.8198 21.6865 19.7794 21.8179C19.598 21.8406 19.0722 21.8791 18.6086 21.9029C17.4413 21.9641 16.674 22.0888 15.9838 22.3313C15.9216 22.3592 15.8547 22.3754 15.7866 22.3789C15.7594 22.3506 16.2286 22.0707 16.6174 21.8837C17.1648 21.6196 17.7088 21.4757 18.9294 21.2728C19.5323 21.1719 20.1556 21.0507 20.3132 21.0019C21.8069 20.5441 22.5753 19.3631 22.3294 17.9Z" fill="white"/>
    <path d="M23.7347 20.3979C23.3267 19.5218 23.2338 18.6752 23.457 17.8864C23.4808 17.8025 23.5194 17.7334 23.542 17.7334C23.6187 17.7612 23.6909 17.8001 23.7562 17.849C23.9444 17.9759 24.3206 18.189 25.3236 18.7353C26.576 19.4187 27.29 19.9479 27.7762 20.5509C28.2012 21.0801 28.4641 21.6831 28.591 22.4175C28.6624 22.8334 28.6205 23.8341 28.514 24.2535C28.1774 25.5749 27.3942 26.6131 26.279 27.2183C26.1738 27.2792 26.0648 27.3333 25.9526 27.3803C25.9368 27.3803 25.9957 27.2296 26.0852 27.0437C26.4592 26.2595 26.5034 25.4956 26.219 24.6456C26.0456 24.1254 25.6908 23.4896 24.9757 22.4175C24.1438 21.1708 23.9398 20.8376 23.7347 20.3979ZM12.2121 25.125C13.3511 24.1639 14.7666 23.4817 16.0575 23.272C16.6128 23.1813 17.5399 23.2176 18.0544 23.3491C18.8795 23.5599 19.6184 24.0336 20.0026 24.5969C20.3766 25.1477 20.5387 25.6282 20.7053 26.6958C20.7733 27.1174 20.8447 27.5401 20.8662 27.6365C20.9909 28.1895 21.2368 28.6327 21.5406 28.8548C22.0222 29.2073 22.853 29.2288 23.669 28.9115C23.7542 28.8723 23.8441 28.8442 23.9364 28.8276C23.9659 28.8571 23.5556 29.1325 23.2655 29.2775C22.9231 29.4607 22.5397 29.5536 22.1514 29.5473C21.4034 29.5473 20.7824 29.1676 20.2644 28.3913C20.1624 28.2383 19.9335 27.7815 19.7544 27.3747C19.2082 26.128 18.9384 25.7472 18.3038 25.3313C17.7496 24.9686 17.0367 24.904 16.5006 25.1669C15.7957 25.5126 15.5996 26.4136 16.104 26.9837C16.3046 27.2103 16.6786 27.4064 16.9846 27.4438C17.1181 27.4615 17.2538 27.4503 17.3826 27.411C17.5114 27.3717 17.6302 27.3053 17.7311 27.2161C17.832 27.1269 17.9126 27.0171 17.9674 26.8941C18.0222 26.7711 18.0499 26.6378 18.0488 26.5031C18.0488 26.1269 17.9037 25.9138 17.541 25.7495C17.0458 25.5262 16.5131 25.7869 16.5154 26.2527C16.5165 26.451 16.6026 26.5757 16.8021 26.6663C16.9302 26.723 16.9324 26.7287 16.8282 26.7071C16.3737 26.6119 16.2672 26.0645 16.6332 25.7007C17.0718 25.2633 17.9796 25.4559 18.2913 26.0521C18.4228 26.3025 18.4375 26.8023 18.323 27.1038C18.068 27.7781 17.3223 28.1317 16.5664 27.9391C16.0518 27.8076 15.8422 27.6659 15.2222 27.0267C14.1444 25.9161 13.7262 25.7007 12.1713 25.4582L11.8732 25.4117L12.2121 25.125Z" fill="white"/>
    <path fill-rule="evenodd" clip-rule="evenodd" d="M7.60623 4.54152C11.4539 9.26072 13.4214 11.6815 13.5098 11.8017C13.7364 12.1167 13.6514 12.3989 13.2616 12.6211C13.0451 12.7446 12.5986 12.8693 12.3764 12.8693C12.1237 12.8693 11.8392 12.748 11.6318 12.5519C11.4856 12.4125 10.8952 11.5308 9.53176 9.41486C8.8933 8.4148 8.24652 7.42007 7.59149 6.43079C7.53596 6.37866 7.53709 6.37979 9.42523 9.75826C10.6107 11.8799 11.0119 12.629 11.0119 12.7299C11.0119 12.9339 10.9552 13.0404 10.7036 13.3215C10.2843 13.7895 10.0973 14.3154 9.96129 15.4034C9.80943 16.624 9.38329 17.4853 8.20009 18.9598C7.50876 19.8234 7.39543 19.9821 7.21976 20.33C6.99989 20.7675 6.93983 21.0134 6.91489 21.5665C6.88883 22.1513 6.93983 22.5298 7.11889 23.0885C7.27529 23.5781 7.43849 23.9023 7.85556 24.5483C8.21596 25.107 8.42336 25.5218 8.42336 25.6839C8.42336 25.8131 8.44829 25.8131 9.00703 25.6873C10.3432 25.3858 11.4278 24.8543 12.0387 24.2037C12.4161 23.8014 12.5045 23.5793 12.5079 23.0273C12.509 22.6669 12.4966 22.591 12.3991 22.3836C12.2404 22.0459 11.9514 21.7648 11.3145 21.3296C10.4792 20.7584 10.1234 20.2983 10.0248 19.667C9.94316 19.1491 10.0372 18.783 10.4996 17.8151C10.9768 16.8133 11.0958 16.3871 11.1762 15.3773C11.2272 14.7245 11.2986 14.4673 11.4868 14.261C11.6817 14.0457 11.8585 13.972 12.3424 13.9063C13.1312 13.7986 13.6333 13.5946 14.0458 13.2149C14.404 12.884 14.5536 12.5655 14.5762 12.0873L14.5944 11.7246L14.3938 11.4911C14.2124 11.2792 12.0466 8.88899 7.89749 4.32166L7.60736 4.54152H7.60623ZM8.83023 22.2283C8.90929 22.0883 8.93291 21.9237 8.89638 21.7672C8.85986 21.6106 8.76587 21.4734 8.63303 21.3829C8.37463 21.2106 7.97229 21.2922 7.97229 21.5166C7.97229 21.5846 8.00969 21.6345 8.09469 21.6787C8.23863 21.7523 8.24883 21.8362 8.13663 22.0051C8.02216 22.1773 8.03123 22.3292 8.16269 22.4323C8.37349 22.5978 8.67269 22.506 8.83136 22.2283H8.83023ZM15.0919 14.0967C14.7213 14.21 14.362 14.6033 14.2498 15.0147C14.1818 15.2651 14.2204 15.706 14.3224 15.842C14.4867 16.0619 14.6465 16.1197 15.0772 16.1163C15.9204 16.1106 16.6525 15.7491 16.7386 15.2969C16.8089 14.9263 16.4859 14.4129 16.0428 14.1862C15.8138 14.0706 15.3276 14.0241 15.0919 14.0967ZM16.0779 14.8673C16.2082 14.6826 16.1504 14.482 15.9306 14.3483C15.509 14.091 14.872 14.3029 14.872 14.7019C14.872 14.8991 15.2041 15.1155 15.5078 15.1155C15.7118 15.1155 15.9884 14.9943 16.0779 14.8673Z" fill="white"/>
  </g>
  <defs>
    <filter id="filter0_d_1_4538" x="0" y="0.5" width="36" height="36" filterUnits="userSpaceOnUse" color-interpolation-filters="sRGB">
      <feFlood flood-opacity="0" result="BackgroundImageFix"/>
      <feColorMatrix in="SourceAlpha" type="matrix" values="0 0 0 0 0 0 0 0 0 0 0 0 0 0 0 0 0 0 127 0" result="hardAlpha"/>
      <feOffset dy="0.5"/>
      <feGaussianBlur stdDeviation="0.5"/>
      <feComposite in2="hardAlpha" operator="out"/>
      <feColorMatrix type="matrix" values="0 0 0 0 0 0 0 0 0 0 0 0 0 0 0 0 0 0 0.199474 0"/>
      <feBlend mode="normal" in2="BackgroundImageFix" result="effect1_dropShadow_1_4538"/>
      <feBlend mode="normal" in="SourceGraphic" in2="effect1_dropShadow_1_4538" result="shape"/>
    </filter>
    <filter id="filter1_d_1_4538" x="5.90851" y="3.82166" width="24.6655" height="27.226" filterUnits="userSpaceOnUse" color-interpolation-filters="sRGB">
      <feFlood flood-opacity="0" result="BackgroundImageFix"/>
      <feColorMatrix in="SourceAlpha" type="matrix" values="0 0 0 0 0 0 0 0 0 0 0 0 0 0 0 0 0 0 127 0" result="hardAlpha"/>
      <feOffset dy="0.5"/>
      <feGaussianBlur stdDeviation="0.5"/>
      <feColorMatrix type="matrix" values="0 0 0 0 0 0 0 0 0 0 0 0 0 0 0 0 0 0 0.204257 0"/>
      <feBlend mode="normal" in2="BackgroundImageFix" result="effect1_dropShadow_1_4538"/>
      <feBlend mode="normal" in="SourceGraphic" in2="effect1_dropShadow_1_4538" result="shape"/>
    </filter>
    <linearGradient id="paint0_linear_1_4538" x1="1701" y1="1" x2="1701" y2="3401" gradientUnits="userSpaceOnUse">
      <stop stop-color="white" stop-opacity="0.5"/>
      <stop offset="1" stop-opacity="0.5"/>
    </linearGradient>
  </defs>
</svg>