<svg xmlns="http://www.w3.org/2000/svg" width="36" height="37" viewBox="0 0 36 37" fill="none">
  <g filter="url(#filter0_d_1_4563)">
    <path d="M18 35C27.3888 35 35 27.3888 35 18C35 8.61116 27.3888 1 18 1C8.61116 1 1 8.61116 1 18C1 27.3888 8.61116 35 18 35Z" fill="black"/>
  </g>
  <path d="M18 35C27.3888 35 35 27.3888 35 18C35 8.61116 27.3888 1 18 1C8.61116 1 1 8.61116 1 18C1 27.3888 8.61116 35 18 35Z" fill="#4700C2"/>
  <path style="mix-blend-mode:soft-light" d="M18 35C27.3888 35 35 27.3888 35 18C35 8.61116 27.3888 1 18 1C8.61116 1 1 8.61116 1 18C1 27.3888 8.61116 35 18 35Z" fill="url(#paint0_linear_1_4563)"/>
  <path d="M18 34.4333C27.0759 34.4333 34.4333 27.0759 34.4333 18C34.4333 8.9241 27.0759 1.56665 18 1.56665C8.9241 1.56665 1.56665 8.9241 1.56665 18C1.56665 27.0759 8.9241 34.4333 18 34.4333Z" stroke="black" stroke-opacity="0.097"/>
  <path fill-rule="evenodd" clip-rule="evenodd" d="M15.6653 16.3726C15.3537 16.5766 14.9944 16.7919 14.6238 17.0186V19.0541C14.9604 18.8841 15.3072 18.7107 15.6653 18.5407V16.3726ZM10.4599 20.1387C10.5544 20.3219 10.7173 20.4606 10.9133 20.5247C11.1093 20.5887 11.3226 20.573 11.5071 20.4809L12.4807 19.9902C12.4863 19.1708 12.4897 18.5509 12.4897 18.3027V18.2381L10.7965 19.0847C10.6123 19.18 10.4733 19.3445 10.4102 19.5421C10.3471 19.7397 10.365 19.9542 10.4599 20.1387ZM15.9589 19.9313C15.9586 20.0333 15.9784 20.1344 16.0172 20.2288C16.056 20.3232 16.113 20.409 16.185 20.4813C16.257 20.5536 16.3426 20.611 16.4368 20.6502C16.531 20.6895 16.632 20.7097 16.7341 20.7099H16.7431C17.1738 20.7099 17.5217 20.3608 17.5217 19.9313V13.4815C17.5215 13.3707 17.4977 13.2612 17.4519 13.1603C17.4061 13.0594 17.3392 12.9695 17.2559 12.8965C17.1726 12.8234 17.0747 12.769 16.9687 12.7368C16.8626 12.7046 16.751 12.6953 16.6411 12.7097C16.4535 12.7326 16.2808 12.8235 16.1555 12.965C16.0302 13.1066 15.9611 13.2891 15.9611 13.4781V16.7001C15.9589 17.7813 15.9589 18.8557 15.9589 19.9301V19.9313Z" fill="white"/>
  <path fill-rule="evenodd" clip-rule="evenodd" d="M27.0519 14.9356C27.002 14.5593 26.7527 14.3496 26.3719 14.2499C26.0659 14.1808 25.7528 14.1489 25.4392 14.1547C24.698 14.1513 23.9624 14.2714 23.2337 14.4142C22.1801 14.6184 21.1385 14.8803 20.1136 15.1985C19.8042 15.2948 19.4994 15.3934 19.19 15.4932L19.1866 15.4796L19.2432 15.4342C19.8382 14.9242 20.4321 14.4142 21.0305 13.9099C22.3278 12.8024 23.5334 11.5918 24.6356 10.29C24.936 9.94098 25.1955 9.56698 25.3281 9.14085C25.5287 8.50165 25.3032 8.10271 24.6549 7.92365C24.3797 7.85697 24.0971 7.82573 23.814 7.83071C23.1963 7.82845 22.5854 7.92931 21.9825 8.05398C21.2556 8.20743 20.5353 8.39081 19.8235 8.60365C18.8341 8.90625 17.6135 9.42531 16.5244 9.86731C15.9679 10.0826 15.3752 10.3614 14.8221 10.5768L12.7277 11.4302C9.94763 12.6258 9.1373 11.7668 9.1373 11.7668C9.1373 11.7702 9.13956 11.7724 9.1407 11.7758C9.13571 11.7681 9.13189 11.7597 9.12936 11.7509C8.58763 12.8162 9.0387 14.7542 12.1656 13.3693C12.6563 13.1778 13.1572 12.9715 13.6446 12.7834C14.5875 12.415 15.5202 11.9617 16.4654 11.5968C16.6717 11.5106 17.4696 11.1854 18.4329 10.834L19.029 10.6017C19.641 10.4011 20.253 10.2005 20.8764 10.0464C21.5564 9.86958 22.1491 9.76531 22.5084 9.81065C22.5446 9.81405 22.582 9.81745 22.616 9.82311C22.7792 9.84578 22.8654 9.93191 22.8506 10.0464C22.8438 10.222 22.5605 10.8057 19.9742 12.959L19.4087 13.4441C19.1186 13.6934 18.8375 13.9416 18.553 14.1887L18.315 14.3984L18.3128 14.4018L18.2017 14.5004C18.193 14.5095 18.1835 14.5178 18.1734 14.5253L18.1462 14.5502L17.9297 14.7134C17.9149 14.7278 17.8994 14.7414 17.8832 14.7542V17.4878C18.7978 17.1762 23.2496 15.6892 23.7278 16.1256C23.7652 16.1743 24.3308 16.5268 19.156 20.0673C18.952 20.2214 18.7548 20.3756 18.5508 20.5308L17.8028 21.102C16.8666 21.7786 15.9373 22.4586 15.0012 23.1341L14.5966 23.4288C14.5898 24.1654 14.5875 24.8738 14.5841 25.522L24.4566 18.2381C25.0589 17.7309 25.6296 17.1874 26.1656 16.6106C26.4682 16.2865 26.7402 15.9431 26.9193 15.551C27.0111 15.347 27.0791 15.1486 27.0519 14.9356ZM10.9665 26.1408C10.8393 26.2994 10.7744 26.499 10.784 26.7021C10.7936 26.9051 10.8771 27.0977 11.0186 27.2436C11.148 27.3804 11.3201 27.4689 11.5066 27.4947C11.693 27.5205 11.8827 27.4818 12.0443 27.3852L12.441 27.0951C12.4432 26.5024 12.4489 25.7793 12.4557 25.0007L11.1206 25.989C11.0633 26.0332 11.0115 26.0842 10.9665 26.1408Z" fill="white"/>
  <path fill-rule="evenodd" clip-rule="evenodd" d="M14.337 14.7974C14.2926 14.6315 14.1946 14.4849 14.0584 14.3804C13.9221 14.2759 13.7551 14.2193 13.5834 14.2194C13.5494 14.2194 13.5154 14.2228 13.4814 14.2262C13.2938 14.2491 13.121 14.34 12.9958 14.4815C12.8705 14.6231 12.8014 14.8055 12.8014 14.9946V18.2166C12.8014 18.8683 12.7742 22.104 12.7492 24.7877C12.7376 26.0109 12.7293 27.2342 12.7243 28.4574C12.724 28.5595 12.7438 28.6606 12.7826 28.755C12.8215 28.8493 12.8785 28.9351 12.9505 29.0074C13.0225 29.0798 13.108 29.1372 13.2022 29.1764C13.2964 29.2156 13.3975 29.2359 13.4995 29.236H13.5086C13.9392 29.236 14.2872 28.887 14.2872 28.4574C14.2872 27.9168 14.294 26.9308 14.2996 25.7238L14.3121 23.6294C14.3348 20.2714 14.3642 16.3138 14.362 14.9946C14.3613 14.9281 14.3529 14.8619 14.337 14.7974Z" fill="white"/>
  <defs>
    <filter id="filter0_d_1_4563" x="0" y="0.5" width="36" height="36" filterUnits="userSpaceOnUse" color-interpolation-filters="sRGB">
      <feFlood flood-opacity="0" result="BackgroundImageFix"/>
      <feColorMatrix in="SourceAlpha" type="matrix" values="0 0 0 0 0 0 0 0 0 0 0 0 0 0 0 0 0 0 127 0" result="hardAlpha"/>
      <feOffset dy="0.5"/>
      <feGaussianBlur stdDeviation="0.5"/>
      <feComposite in2="hardAlpha" operator="out"/>
      <feColorMatrix type="matrix" values="0 0 0 0 0 0 0 0 0 0 0 0 0 0 0 0 0 0 0.199474 0"/>
      <feBlend mode="normal" in2="BackgroundImageFix" result="effect1_dropShadow_1_4563"/>
      <feBlend mode="normal" in="SourceGraphic" in2="effect1_dropShadow_1_4563" result="shape"/>
    </filter>
    <linearGradient id="paint0_linear_1_4563" x1="1701" y1="1" x2="1701" y2="3401" gradientUnits="userSpaceOnUse">
      <stop stop-color="white" stop-opacity="0.5"/>
      <stop offset="1" stop-opacity="0.5"/>
    </linearGradient>
  </defs>
</svg>