<svg xmlns="http://www.w3.org/2000/svg" width="35" height="36" viewBox="0 0 35 36" fill="none">
  <g filter="url(#filter0_d_1_4381)">
    <path d="M17.5 34C26.6127 34 34 26.6127 34 17.5C34 8.3873 26.6127 1 17.5 1C8.3873 1 1 8.3873 1 17.5C1 26.6127 8.3873 34 17.5 34Z" fill="black"/>
  </g>
  <path d="M17.5 34C26.6127 34 34 26.6127 34 17.5C34 8.3873 26.6127 1 17.5 1C8.3873 1 1 8.3873 1 17.5C1 26.6127 8.3873 34 17.5 34Z" fill="#E53431"/>
  <path style="mix-blend-mode:soft-light" d="M17.5 34C26.6127 34 34 26.6127 34 17.5C34 8.3873 26.6127 1 17.5 1C8.3873 1 1 8.3873 1 17.5C1 26.6127 8.3873 34 17.5 34Z" fill="url(#paint0_linear_1_4381)"/>
  <path d="M17.4999 33.4499C26.3089 33.4499 33.4499 26.3089 33.4499 17.4999C33.4499 8.69098 26.3089 1.54993 17.4999 1.54993C8.69098 1.54993 1.54993 8.69098 1.54993 17.4999C1.54993 26.3089 8.69098 33.4499 17.4999 33.4499Z" stroke="black" stroke-opacity="0.097"/>
  <g filter="url(#filter1_d_1_4381)">
    <path d="M13.2287 5.74555C13.2759 5.7091 13.3341 5.68972 13.3937 5.69055C13.4532 5.69055 13.5111 5.70984 13.5587 5.74555L14.9414 6.78175C14.9703 6.80349 14.9946 6.8307 15.013 6.86185C15.0314 6.89299 15.0434 6.92744 15.0485 6.96324C15.0535 6.99904 15.0515 7.03549 15.0424 7.0705C15.0334 7.10551 15.0176 7.1384 14.9958 7.1673C14.9741 7.19619 14.9469 7.22051 14.9157 7.23888C14.8846 7.25726 14.8501 7.26931 14.8143 7.27437C14.7785 7.27943 14.7421 7.27738 14.7071 7.26835C14.6721 7.25932 14.6392 7.24349 14.6103 7.22175L13.3937 6.31205L9.43699 9.27875L26.817 22.3181C26.8514 22.344 26.8793 22.3774 26.8985 22.4159C26.9177 22.4544 26.9277 22.4968 26.9277 22.5398C26.9277 22.5828 26.9177 22.6252 26.8985 22.6637C26.8793 22.7022 26.8514 22.7356 26.817 22.7614L25.5399 23.7184C25.4813 23.7622 25.4076 23.7809 25.3352 23.7704C25.2628 23.7598 25.1975 23.721 25.1538 23.6623C25.11 23.6037 25.0914 23.5301 25.1019 23.4577C25.1124 23.3853 25.1513 23.32 25.2099 23.2762L26.1922 22.5392L8.81109 9.50205C8.77653 9.47671 8.74843 9.44359 8.72906 9.40536C8.70969 9.36714 8.6996 9.32489 8.6996 9.28204C8.6996 9.23919 8.70969 9.19695 8.72906 9.15873C8.74843 9.1205 8.77653 9.08738 8.81109 9.06205L13.2287 5.74665V5.74555ZM17.6474 5.74555C17.6945 5.70901 17.7524 5.689 17.812 5.6886C17.8717 5.68821 17.9298 5.70744 17.9774 5.74335L26.8159 12.373C26.8624 12.4074 26.8966 12.4557 26.9136 12.5109C26.9307 12.5662 26.9296 12.6254 26.9105 12.6799C26.8926 12.735 26.8577 12.7829 26.8109 12.8169C26.7641 12.8509 26.7077 12.8692 26.6498 12.8691H22.2311C22.1717 12.8688 22.1139 12.8495 22.0661 12.8141L16.2658 8.46475C16.2368 8.443 16.2123 8.41576 16.1938 8.38456C16.1753 8.35337 16.1631 8.31883 16.1579 8.28293C16.1528 8.24702 16.1547 8.21045 16.1637 8.17531C16.1727 8.14016 16.1885 8.10713 16.2102 8.0781C16.232 8.04906 16.2592 8.02459 16.2904 8.00609C16.3216 7.98758 16.3562 7.9754 16.3921 7.97024C16.428 7.96508 16.4645 7.96705 16.4997 7.97602C16.5348 7.985 16.5679 8.0008 16.5969 8.02255L22.3246 12.3169H25.8215L17.8135 6.31095L12.2695 10.4689C12.2405 10.4907 12.2074 10.5065 12.1723 10.5155C12.1371 10.5244 12.1006 10.5264 12.0647 10.5212C11.9921 10.5108 11.9267 10.472 11.8828 10.4134C11.8389 10.3548 11.8201 10.2811 11.8305 10.2086C11.841 10.1361 11.8798 10.0707 11.9384 10.0267L17.6474 5.74555ZM10.031 11.46C10.0899 11.4244 10.16 11.412 10.2275 11.4253C10.2951 11.4385 10.3553 11.4763 10.3965 11.5315C10.4377 11.5867 10.4568 11.6552 10.4503 11.7237C10.4437 11.7923 10.4119 11.8559 10.361 11.9022L9.43589 12.5952L26.817 25.6346C26.8516 25.6602 26.8797 25.6935 26.899 25.7319C26.9184 25.7703 26.9285 25.8127 26.9285 25.8557C26.9285 25.8987 26.9184 25.9412 26.899 25.9796C26.8797 26.018 26.8516 26.0513 26.817 26.0768L22.3983 29.3911C22.3505 29.4263 22.2927 29.4453 22.2333 29.4453C22.1739 29.4453 22.1161 29.4263 22.0683 29.3911L20.789 28.4319C20.7304 28.3877 20.6917 28.3221 20.6815 28.2493C20.6712 28.1766 20.6903 28.1028 20.7345 28.0442C20.7787 27.9856 20.8444 27.9469 20.9171 27.9367C20.9899 27.9265 21.0637 27.9455 21.1223 27.9897L22.2333 28.8224L26.1933 25.8524L8.80779 12.8163C8.77381 12.7904 8.74627 12.7569 8.72732 12.7186C8.70836 12.6802 8.6985 12.638 8.6985 12.5952C8.6985 12.5525 8.70836 12.5103 8.72732 12.4719C8.74627 12.4336 8.77381 12.4001 8.80779 12.3741L10.0288 11.4611L10.031 11.46ZM8.97609 22.2609V22.2631H13.3926C13.4522 22.2623 13.5104 22.2817 13.5576 22.3181L19.2952 26.6202C19.3242 26.6419 19.3487 26.6691 19.3672 26.7002C19.3858 26.7313 19.398 26.7658 19.4032 26.8017C19.4084 26.8375 19.4065 26.8741 19.3976 26.9092C19.3887 26.9443 19.373 26.9773 19.3513 27.0063C19.3296 27.0354 19.3024 27.0599 19.2713 27.0784C19.2402 27.0969 19.2057 27.1091 19.1699 27.1144C19.134 27.1196 19.0975 27.1177 19.0624 27.1088C19.0272 27.0998 18.9942 27.0841 18.9652 27.0624L13.3046 22.8153H9.80549L17.8146 28.8213L23.3476 24.6721C23.3766 24.6503 23.4097 24.6345 23.4448 24.6254C23.48 24.6164 23.5166 24.6143 23.5526 24.6195C23.5885 24.6246 23.6231 24.6367 23.6544 24.6552C23.6857 24.6737 23.713 24.6981 23.7348 24.7271C23.7566 24.7562 23.7725 24.7892 23.7815 24.8244C23.7906 24.8596 23.7926 24.8962 23.7875 24.9321C23.7824 24.9681 23.7702 25.0027 23.7518 25.034C23.7333 25.0652 23.7088 25.0925 23.6798 25.1143L17.9807 29.3867C17.9331 29.4224 17.8752 29.4417 17.8157 29.4417C17.7558 29.4423 17.6973 29.423 17.6496 29.3867L8.80889 22.7592C8.76538 22.7587 8.72261 22.7479 8.68407 22.7277C8.64553 22.7075 8.61231 22.6785 8.58712 22.643C8.56192 22.6075 8.54547 22.5666 8.53911 22.5236C8.53274 22.4805 8.53663 22.4366 8.55048 22.3953C8.56432 22.3541 8.58771 22.3167 8.61875 22.2862C8.6498 22.2557 8.68761 22.233 8.7291 22.2199C8.77059 22.2068 8.81459 22.2037 8.85752 22.2108C8.90044 22.2179 8.94107 22.2351 8.97609 22.2609Z" fill="black"/>
  </g>
  <path d="M13.2287 5.74555C13.2759 5.7091 13.3341 5.68972 13.3937 5.69055C13.4532 5.69055 13.5111 5.70984 13.5587 5.74555L14.9414 6.78175C14.9703 6.80349 14.9946 6.8307 15.013 6.86185C15.0314 6.89299 15.0434 6.92744 15.0485 6.96324C15.0535 6.99904 15.0515 7.03549 15.0424 7.0705C15.0334 7.10551 15.0176 7.1384 14.9958 7.1673C14.9741 7.19619 14.9469 7.22051 14.9157 7.23888C14.8846 7.25726 14.8501 7.26931 14.8143 7.27437C14.7785 7.27943 14.7421 7.27738 14.7071 7.26835C14.6721 7.25932 14.6392 7.24349 14.6103 7.22175L13.3937 6.31205L9.43699 9.27875L26.817 22.3181C26.8514 22.344 26.8793 22.3774 26.8985 22.4159C26.9177 22.4544 26.9277 22.4968 26.9277 22.5398C26.9277 22.5828 26.9177 22.6252 26.8985 22.6637C26.8793 22.7022 26.8514 22.7356 26.817 22.7614L25.5399 23.7184C25.4813 23.7622 25.4076 23.7809 25.3352 23.7704C25.2628 23.7598 25.1975 23.721 25.1538 23.6623C25.11 23.6037 25.0914 23.5301 25.1019 23.4577C25.1124 23.3853 25.1513 23.32 25.2099 23.2762L26.1922 22.5392L8.81109 9.50205C8.77653 9.47671 8.74843 9.44359 8.72906 9.40536C8.70969 9.36714 8.6996 9.32489 8.6996 9.28204C8.6996 9.23919 8.70969 9.19695 8.72906 9.15873C8.74843 9.1205 8.77653 9.08738 8.81109 9.06205L13.2287 5.74665V5.74555ZM17.6474 5.74555C17.6945 5.70901 17.7524 5.689 17.812 5.6886C17.8717 5.68821 17.9298 5.70744 17.9774 5.74335L26.8159 12.373C26.8624 12.4074 26.8966 12.4557 26.9136 12.5109C26.9307 12.5662 26.9296 12.6254 26.9105 12.6799C26.8926 12.735 26.8577 12.7829 26.8109 12.8169C26.7641 12.8509 26.7077 12.8692 26.6498 12.8691H22.2311C22.1717 12.8688 22.1139 12.8495 22.0661 12.8141L16.2658 8.46475C16.2368 8.443 16.2123 8.41576 16.1938 8.38456C16.1753 8.35337 16.1631 8.31883 16.1579 8.28293C16.1528 8.24702 16.1547 8.21045 16.1637 8.17531C16.1727 8.14016 16.1885 8.10713 16.2102 8.0781C16.232 8.04906 16.2592 8.02459 16.2904 8.00609C16.3216 7.98758 16.3562 7.9754 16.3921 7.97024C16.428 7.96508 16.4645 7.96705 16.4997 7.97602C16.5348 7.985 16.5679 8.0008 16.5969 8.02255L22.3246 12.3169H25.8215L17.8135 6.31095L12.2695 10.4689C12.2405 10.4907 12.2074 10.5065 12.1723 10.5155C12.1371 10.5244 12.1006 10.5264 12.0647 10.5212C11.9921 10.5108 11.9267 10.472 11.8828 10.4134C11.8389 10.3548 11.8201 10.2811 11.8305 10.2086C11.841 10.1361 11.8798 10.0707 11.9384 10.0267L17.6474 5.74555ZM10.031 11.46C10.0899 11.4244 10.16 11.412 10.2275 11.4253C10.2951 11.4385 10.3553 11.4763 10.3965 11.5315C10.4377 11.5867 10.4568 11.6552 10.4503 11.7237C10.4437 11.7923 10.4119 11.8559 10.361 11.9022L9.43589 12.5952L26.817 25.6346C26.8516 25.6602 26.8797 25.6935 26.899 25.7319C26.9184 25.7703 26.9285 25.8127 26.9285 25.8557C26.9285 25.8987 26.9184 25.9412 26.899 25.9796C26.8797 26.018 26.8516 26.0513 26.817 26.0768L22.3983 29.3911C22.3505 29.4263 22.2927 29.4453 22.2333 29.4453C22.1739 29.4453 22.1161 29.4263 22.0683 29.3911L20.789 28.4319C20.7304 28.3877 20.6917 28.3221 20.6815 28.2493C20.6712 28.1766 20.6903 28.1028 20.7345 28.0442C20.7787 27.9856 20.8444 27.9469 20.9171 27.9367C20.9899 27.9265 21.0637 27.9455 21.1223 27.9897L22.2333 28.8224L26.1933 25.8524L8.80779 12.8163C8.77381 12.7904 8.74627 12.7569 8.72732 12.7186C8.70836 12.6802 8.6985 12.638 8.6985 12.5952C8.6985 12.5525 8.70836 12.5103 8.72732 12.4719C8.74627 12.4336 8.77381 12.4001 8.80779 12.3741L10.0288 11.4611L10.031 11.46ZM8.97609 22.2609V22.2631H13.3926C13.4522 22.2623 13.5104 22.2817 13.5576 22.3181L19.2952 26.6202C19.3242 26.6419 19.3487 26.6691 19.3672 26.7002C19.3858 26.7313 19.398 26.7658 19.4032 26.8017C19.4084 26.8375 19.4065 26.8741 19.3976 26.9092C19.3887 26.9443 19.373 26.9773 19.3513 27.0063C19.3296 27.0354 19.3024 27.0599 19.2713 27.0784C19.2402 27.0969 19.2057 27.1091 19.1699 27.1144C19.134 27.1196 19.0975 27.1177 19.0624 27.1088C19.0272 27.0998 18.9942 27.0841 18.9652 27.0624L13.3046 22.8153H9.80549L17.8146 28.8213L23.3476 24.6721C23.3766 24.6503 23.4097 24.6345 23.4448 24.6254C23.48 24.6164 23.5166 24.6143 23.5526 24.6195C23.5885 24.6246 23.6231 24.6367 23.6544 24.6552C23.6857 24.6737 23.713 24.6981 23.7348 24.7271C23.7566 24.7562 23.7725 24.7892 23.7815 24.8244C23.7906 24.8596 23.7926 24.8962 23.7875 24.9321C23.7824 24.9681 23.7702 25.0027 23.7518 25.034C23.7333 25.0652 23.7088 25.0925 23.6798 25.1143L17.9807 29.3867C17.9331 29.4224 17.8752 29.4417 17.8157 29.4417C17.7558 29.4423 17.6973 29.423 17.6496 29.3867L8.80889 22.7592C8.76538 22.7587 8.72261 22.7479 8.68407 22.7277C8.64553 22.7075 8.61231 22.6785 8.58712 22.643C8.56192 22.6075 8.54547 22.5666 8.53911 22.5236C8.53274 22.4805 8.53663 22.4366 8.55048 22.3953C8.56432 22.3541 8.58771 22.3167 8.61875 22.2862C8.6498 22.2557 8.68761 22.233 8.7291 22.2199C8.77059 22.2068 8.81459 22.2037 8.85752 22.2108C8.90044 22.2179 8.94107 22.2351 8.97609 22.2609Z" fill="white"/>
  <defs>
    <filter id="filter0_d_1_4381" x="0" y="0.5" width="35" height="35" filterUnits="userSpaceOnUse" color-interpolation-filters="sRGB">
      <feFlood flood-opacity="0" result="BackgroundImageFix"/>
      <feColorMatrix in="SourceAlpha" type="matrix" values="0 0 0 0 0 0 0 0 0 0 0 0 0 0 0 0 0 0 127 0" result="hardAlpha"/>
      <feOffset dy="0.5"/>
      <feGaussianBlur stdDeviation="0.5"/>
      <feComposite in2="hardAlpha" operator="out"/>
      <feColorMatrix type="matrix" values="0 0 0 0 0 0 0 0 0 0 0 0 0 0 0 0 0 0 0.199474 0"/>
      <feBlend mode="normal" in2="BackgroundImageFix" result="effect1_dropShadow_1_4381"/>
      <feBlend mode="normal" in="SourceGraphic" in2="effect1_dropShadow_1_4381" result="shape"/>
    </filter>
    <filter id="filter1_d_1_4381" x="7.53613" y="5.1886" width="20.3923" height="25.7567" filterUnits="userSpaceOnUse" color-interpolation-filters="sRGB">
      <feFlood flood-opacity="0" result="BackgroundImageFix"/>
      <feColorMatrix in="SourceAlpha" type="matrix" values="0 0 0 0 0 0 0 0 0 0 0 0 0 0 0 0 0 0 127 0" result="hardAlpha"/>
      <feOffset dy="0.5"/>
      <feGaussianBlur stdDeviation="0.5"/>
      <feColorMatrix type="matrix" values="0 0 0 0 0 0 0 0 0 0 0 0 0 0 0 0 0 0 0.204257 0"/>
      <feBlend mode="normal" in2="BackgroundImageFix" result="effect1_dropShadow_1_4381"/>
      <feBlend mode="normal" in="SourceGraphic" in2="effect1_dropShadow_1_4381" result="shape"/>
    </filter>
    <linearGradient id="paint0_linear_1_4381" x1="1651" y1="1" x2="1651" y2="3301" gradientUnits="userSpaceOnUse">
      <stop stop-color="white" stop-opacity="0.5"/>
      <stop offset="1" stop-opacity="0.5"/>
    </linearGradient>
  </defs>
</svg>