<svg width="46" height="47" viewBox="0 0 46 47" fill="none" xmlns="http://www.w3.org/2000/svg">
<path d="M22.6118 4.46353L22.5613 4.53005C22.5498 4.54502 22.5352 4.55722 22.5185 4.56575C22.5019 4.57428 22.4837 4.57891 22.4652 4.57932C21.6535 4.59041 20.806 4.69265 19.9955 4.81583C14.7726 5.61157 10.2064 8.52231 7.24388 12.8915C7.22716 12.9164 7.21995 12.9465 7.22357 12.9762C7.22719 13.0058 7.24141 13.0331 7.26359 13.0529C7.34571 13.126 7.42372 13.1067 7.49763 12.995C7.89755 12.3897 8.39561 11.755 8.9918 11.0906C9.34902 10.6927 9.83928 10.3367 10.2495 9.93888C10.2569 9.93128 10.2665 9.92638 10.2762 9.92523C10.2859 9.92407 10.2948 9.92676 10.3012 9.93272L10.3283 9.95859C10.3309 9.9611 10.3329 9.96411 10.3342 9.96745C10.3356 9.97078 10.3362 9.97436 10.3361 9.97795C10.336 9.98154 10.3351 9.98507 10.3336 9.98831C10.332 9.99156 10.3298 9.99444 10.3271 9.99677L10.1497 10.1409C10.0339 10.2353 10.0466 10.2587 10.1879 10.2111C10.4112 10.1356 10.6198 10.1959 10.8136 10.3922C10.8283 10.4073 10.8465 10.4184 10.8666 10.4244C10.8866 10.4304 10.9078 10.4312 10.9282 10.4267L11.5601 10.285C11.5894 10.2787 11.6153 10.2616 11.6328 10.237C11.7609 10.0571 12.3485 9.82802 12.548 9.74056C12.5636 9.73392 12.5803 9.73049 12.5973 9.73049C12.6142 9.73049 12.631 9.73392 12.6465 9.74056C12.7139 9.77012 12.7426 9.75164 12.7328 9.68513C12.8502 9.56441 12.9919 9.50734 13.1577 9.51391" stroke="#D9A03B" stroke-width="0.24636"/>
<path d="M13.1573 9.51395C10.7348 11.1867 8.88177 13.3461 7.59823 15.992C7.56538 16.0601 7.535 16.0593 7.50708 15.9895C7.48573 15.937 7.43974 15.9378 7.36912 15.992C7.34455 16.0117 7.3127 16.021 7.28043 16.0178C7.18927 16.008 7.1129 16.0277 7.05131 16.077C6.9733 16.1394 6.9306 16.1205 6.92321 16.0203C6.90678 15.7764 6.73761 15.7115 6.4157 15.8257C6.34098 15.8528 6.25105 15.9337 6.14594 16.0683C6.1333 16.0848 6.11673 16.0977 6.09776 16.106C6.07879 16.1143 6.05803 16.1177 6.0374 16.1159C6.01677 16.114 5.99694 16.107 5.97974 16.0955C5.96254 16.0839 5.94853 16.0683 5.939 16.0499L5.854 15.8836" stroke="#D9A03B" stroke-width="0.24636"/>
<path d="M5.85401 15.8836C5.85401 15.8146 5.83143 15.7653 5.78626 15.7358C5.77434 15.7279 5.76086 15.7227 5.74675 15.7206C5.73264 15.7185 5.71823 15.7194 5.70453 15.7234C5.69082 15.7274 5.67814 15.7343 5.66737 15.7437C5.6566 15.753 5.64799 15.7646 5.64214 15.7776C4.62837 18.0762 4.11841 20.828 4.26499 23.3692C4.26581 23.3926 4.26027 23.4156 4.24898 23.4357C4.10978 23.6883 4.2539 24.7636 4.28716 25.0925C4.75278 29.8103 6.7097 33.787 10.1579 37.0225C10.2466 37.1062 10.2799 37.2249 10.2577 37.3785" stroke="#D9A03B" stroke-width="0.24636"/>
<path d="M6.65995 26.9648C6.4604 26.9246 6.40907 27.0186 6.50597 27.2469C6.6156 27.5056 6.58358 27.7938 6.68951 28.0808C6.91739 28.7041 7.07506 29.2831 7.45815 30.1626C8.11717 31.6752 9.00037 33.0314 10.0474 34.3162C10.0958 34.3753 10.0823 34.4094 10.0067 34.4184C9.91149 34.4299 9.81787 34.3047 9.7259 34.0427C9.71865 34.0218 9.7059 34.003 9.68894 33.9885L9.42903 33.7742C9.40275 33.7529 9.38879 33.759 9.38715 33.7927C9.38469 33.8259 9.40563 33.8826 9.43519 33.9109C9.66554 34.1364 10.9047 35.3497 9.58793 35.0405C9.38017 34.9912 9.25124 35.0475 9.20115 35.2093C9.19254 35.2372 9.19413 35.2672 9.20564 35.2941C9.21714 35.3209 9.23782 35.3428 9.26397 35.3558C9.5711 35.5086 9.58383 35.6531 9.30216 35.7894C9.278 35.8012 9.25072 35.8048 9.22447 35.7997C9.19823 35.7945 9.17447 35.781 9.1568 35.7611C8.53351 35.0614 7.97058 34.3166 7.46801 33.5266C7.40765 33.4318 7.28817 33.3505 7.22411 33.2445C6.29944 31.722 5.58253 30.1063 5.07339 28.3974C5.05861 28.3465 5.04136 28.2553 5.02166 28.1239C4.9884 27.8887 4.85167 27.6694 4.81964 27.4649C4.63077 26.2742 4.51415 25.4624 4.46981 25.0297C4.33513 23.7371 4.32815 22.4433 4.44887 21.1483C4.45544 21.0744 4.47884 20.9746 4.51908 20.8489C4.59053 20.6272 4.58806 20.2528 4.61024 20.1148C4.8451 18.6531 5.2598 17.2426 5.85435 15.8836" stroke="#D9A03B" stroke-width="0.24636"/>
<path d="M34.4674 8.58998C34.3553 8.7883 34.1914 8.71932 34.051 8.59368C33.8966 8.45407 33.6884 8.29558 33.4265 8.1182C31.0922 6.5378 28.4106 5.37129 25.644 4.99436C25.0108 4.90813 24.3789 4.77879 23.7371 4.83915C23.5881 4.8527 22.5805 4.6938 22.5423 4.85393C22.5408 4.85976 22.5406 4.86585 22.5419 4.87175C22.5431 4.87764 22.5456 4.88318 22.5493 4.88793C22.553 4.89269 22.5577 4.89654 22.5631 4.89919C22.5685 4.90183 22.5745 4.90321 22.5805 4.90321C22.9081 4.90813 23.2506 4.95125 23.5561 4.95987C26.2915 5.04199 28.8725 5.71948 31.2992 6.99234C32.0986 7.41115 33.0237 8.00118 33.5029 8.37934C33.6999 8.53455 33.9102 8.6721 34.1335 8.792C34.1618 8.80699 34.1951 8.81009 34.2259 8.80062L34.269 8.7883C34.4144 8.74642 34.4259 8.77023 34.3035 8.85974C33.8732 9.17591 33.5164 9.56228 33.2331 10.0189C33.2232 10.0348 33.2099 10.0483 33.194 10.0584C33.1781 10.0684 33.1602 10.0746 33.1415 10.0767C33.1229 10.0787 33.104 10.0764 33.0863 10.07C33.0687 10.0636 33.0527 10.0533 33.0397 10.0398C32.6603 9.65056 32.0838 9.3808 31.7623 9.16646C29.6202 7.73758 27.3451 7.04777 24.7448 6.65482C24.3062 6.58831 23.8148 6.61541 23.3491 6.58954C22.0545 6.51563 20.665 6.69055 19.3901 6.90857C17.1507 7.29166 15.0172 8.21428 13.1572 9.51383" stroke="#D9A03B" stroke-width="0.24636"/>
<path d="M30.9991 24.2069C30.8332 24.2019 30.699 24.2738 30.5963 24.4224C28.0219 28.149 25.4445 31.8748 22.8643 35.5998C22.8529 35.6162 22.8377 35.6296 22.8199 35.6389C22.8021 35.6481 22.7824 35.6528 22.7624 35.6527C22.7424 35.6526 22.7227 35.6476 22.705 35.6382C22.6874 35.6287 22.6723 35.6151 22.6611 35.5985C20.094 31.8736 17.5158 28.1466 14.9266 24.4175C14.8527 24.3103 14.5645 24.1145 14.865 24.1169C14.8835 24.1174 14.9017 24.1219 14.9183 24.1302C14.9349 24.1385 14.9495 24.1504 14.9611 24.165C15.4686 24.8141 15.8985 25.5126 16.3937 26.1679C17.437 27.5438 18.3633 29.0417 19.3734 30.4496" stroke="#D9A03B" stroke-width="0.24636"/>
<path d="M19.373 30.4496C20.3302 31.9277 21.3994 33.3369 22.3306 34.8335C22.4349 35.0002 22.5634 35.1513 22.7161 35.2868C22.7293 35.2984 22.7447 35.3071 22.7615 35.3122C22.7782 35.3174 22.7958 35.3189 22.8132 35.3167C22.8306 35.3144 22.8473 35.3086 22.8622 35.2994C22.8771 35.2902 22.8899 35.2779 22.8997 35.2634L26.3118 30.2476" stroke="#D9A03B" stroke-width="0.24636"/>
<path d="M26.3118 30.2475C27.6553 28.3801 28.9614 26.4906 30.2302 24.5788C30.2828 24.5 30.3546 24.4298 30.4458 24.3682C30.5016 24.3304 30.5566 24.2901 30.6108 24.2474C30.6261 24.2357 30.6383 24.2206 30.6466 24.2033C30.6549 24.1859 30.659 24.1669 30.6585 24.1477C30.658 24.1284 30.653 24.1096 30.6439 24.0927C30.6347 24.0758 30.6217 24.0613 30.6059 24.0504C30.2996 23.8344 30.0926 23.6036 29.9851 23.3581C29.8652 23.0838 29.6911 22.7849 29.4628 22.4613C29.3897 22.3579 29.338 22.2257 29.3076 22.0647C29.3045 22.0476 29.2979 22.0315 29.2881 22.0172C29.2783 22.003 29.2656 21.991 29.2509 21.9822C29.1105 21.8984 29.0686 21.7149 28.9935 21.6163C28.6449 21.1618 28.4244 20.6543 28.1164 20.1887C27.6151 19.4299 27.1913 18.5479 26.6752 17.7805C26.58 17.6393 26.488 17.4968 26.3993 17.3531C26.3915 17.3398 26.3811 17.3282 26.3686 17.3189C26.3561 17.3096 26.3419 17.3028 26.3266 17.2989C26.1952 17.2627 26.1078 17.186 26.0642 17.0685C26.0569 17.0488 26.0454 17.032 26.0298 17.018L25.5851 16.6349C25.5677 16.6198 25.5465 16.6098 25.5238 16.6061C25.5012 16.6024 25.478 16.6051 25.457 16.614L24.793 16.8973C24.7724 16.9062 24.7496 16.909 24.7272 16.9056C24.7047 16.9021 24.6836 16.8924 24.6662 16.8776C24.4272 16.6768 24.3631 16.3479 24.2227 16.1619C23.9575 15.8121 23.6573 15.4922 23.3223 15.2023" stroke="#D9A03B" stroke-width="0.24636"/>
<path d="M23.3224 15.2024L22.89 14.7356C22.8678 14.7118 22.837 14.6978 22.8045 14.6966C22.7719 14.6955 22.7402 14.7073 22.7163 14.7294C22.378 15.0398 22.0967 15.3954 21.8726 15.7962" stroke="#D9A03B" stroke-width="0.24636"/>
<path d="M21.8725 15.7961C21.7394 15.8273 21.6257 15.895 21.5312 15.9993C21.5106 16.0216 21.483 16.0356 21.4536 16.0387L21.0435 16.0855C21.0136 16.0889 20.9859 16.1031 20.9658 16.1255C20.9456 16.148 20.9342 16.1771 20.9338 16.2075L20.9301 16.4908C20.93 16.5072 20.9265 16.5234 20.92 16.5384C20.9136 16.5535 20.9041 16.5671 20.8923 16.5784C20.8805 16.5898 20.8665 16.5987 20.8512 16.6046C20.8359 16.6105 20.8196 16.6133 20.8033 16.6128C20.3187 16.5972 19.8921 16.7413 19.5234 17.0451C19.4011 17.1453 19.2578 17.2755 19.0935 17.4356C18.8632 17.661 18.7696 17.9801 18.5183 18.2289C18.4953 18.2511 18.3729 18.4063 18.1512 18.6945C18.0921 18.7709 18.0707 18.7532 18.0871 18.6415C18.0911 18.6145 18.1041 18.5897 18.1241 18.5713C18.1569 18.5393 18.1565 18.5179 18.1229 18.5073C18.1116 18.5036 18.1012 18.4974 18.0926 18.4892C18.0841 18.481 18.0775 18.4709 18.0733 18.4598C18.0692 18.4487 18.0676 18.4367 18.0687 18.4249C18.0698 18.4131 18.0736 18.4016 18.0797 18.3915C19.5866 15.8761 21.0927 13.3604 22.598 10.8442C22.6719 10.7198 22.6509 10.6336 22.5758 10.5252" stroke="#D9A03B" stroke-width="0.24636"/>
<path d="M21.8724 15.7961C19.7898 19.2435 18.3297 21.6824 17.4921 23.113C17.3188 23.4086 17.4034 23.5634 17.7459 23.5774" stroke="#D9A03B" stroke-width="0.24636"/>
<path d="M17.7766 23.6081C17.2876 23.7141 17.5229 23.9666 17.7803 24.0812C19.1755 24.7069 20.572 25.331 21.9697 25.9535C22.2813 26.0927 22.5252 26.2035 22.8775 26.0878C23.1091 26.0126 23.3271 25.9572 23.5488 25.8525C24.9666 25.1787 26.4189 24.5948 27.8441 23.9383C27.8586 23.9318 27.8701 23.92 27.8762 23.9054C27.8824 23.8908 27.8828 23.8743 27.8774 23.8594L27.8651 23.8274C27.8601 23.8137 27.8582 23.7991 27.8596 23.7846C27.8609 23.7702 27.8653 23.7562 27.8726 23.7437C27.8799 23.7312 27.8899 23.7205 27.9018 23.7124C27.9137 23.7043 27.9272 23.699 27.9414 23.6968C28.2132 23.6525 28.2436 23.5022 28.0326 23.246C27.9747 23.1758 27.9784 22.9713 27.9069 22.8555C26.3606 20.3188 24.8324 17.7678 23.3222 15.2023" stroke="#D9A03B" stroke-width="0.24636"/>
<path d="M26.312 30.2475C26.2635 29.8837 26.096 29.6969 25.8094 29.687C25.5643 29.6796 25.1898 29.6944 25.1024 29.4296C25.0671 29.3237 25.0962 29.2358 25.1898 29.166C25.2038 29.1555 25.2154 29.1422 25.2239 29.1269C25.2324 29.1116 25.2376 29.0947 25.2391 29.0773L25.244 29.0268C25.2506 28.9439 25.2309 28.9369 25.1849 29.0059C24.7053 29.7129 23.9876 30.7139 23.0317 32.009C22.9471 32.1239 22.8515 32.1773 22.7447 32.1691C22.6453 32.1617 22.6429 32.1531 22.7373 32.1432C22.7973 32.1367 22.8174 32.0973 22.7977 32.025C22.7931 32.0076 22.7922 31.9894 22.7952 31.9718C22.7982 31.9541 22.8049 31.9374 22.8149 31.9228L26.0336 27.285C26.0509 27.259 26.0779 27.2409 26.1087 27.2345C26.4832 27.1549 26.5744 26.9779 26.3822 26.7036C26.3706 26.6866 26.3547 26.6728 26.3362 26.6636C26.3177 26.6543 26.2971 26.6499 26.2763 26.6507C25.9954 26.6622 25.7257 26.725 25.467 26.8391C24.6433 27.2021 23.7527 27.6008 22.7952 28.0352C22.779 28.0425 22.7613 28.0462 22.7435 28.046C22.7256 28.0458 22.7079 28.0417 22.6917 28.034C21.8418 27.6308 20.9541 27.2243 20.0286 26.8145C19.756 26.6929 19.5449 26.6215 19.3954 26.6001C19.3646 26.5954 19.3329 26.6029 19.3068 26.6211C18.9758 26.856 19.0185 27.0132 19.4349 27.0929" stroke="#D9A03B" stroke-width="0.24636"/>
<path d="M19.4703 27.1804C19.3989 27.1623 19.3282 27.1586 19.2584 27.1693C19.2404 27.1722 19.2232 27.1791 19.2081 27.1894C19.193 27.1996 19.1804 27.2131 19.1711 27.2287C19.1618 27.2444 19.1561 27.2618 19.1544 27.2799C19.1526 27.2979 19.155 27.3161 19.1611 27.3331C19.2203 27.4949 19.3016 27.6419 19.405 27.7741C19.5865 28.0048 19.6982 28.1551 19.7401 28.2249C19.9926 28.6474 20.3375 29.0293 20.5506 29.4715C20.6105 29.5963 20.6783 29.7179 20.7538 29.8361C20.7678 29.858 20.7728 29.8844 20.7677 29.9097C20.7627 29.935 20.748 29.9572 20.7267 29.9716L20.6947 29.9926C20.671 30.0088 20.6537 30.0328 20.6458 30.0605C20.6379 30.0882 20.64 30.1178 20.6516 30.1441C20.7534 30.3757 20.7321 30.3896 20.5876 30.186C20.5762 30.17 20.561 30.1571 20.5434 30.1483C20.5258 30.1395 20.5063 30.1351 20.4865 30.1354H19.7832C19.7637 30.1359 19.7449 30.1432 19.7305 30.1561C19.716 30.169 19.7067 30.1866 19.7044 30.2057L19.7019 30.2389C19.7005 30.2513 19.6962 30.2631 19.6893 30.2735C19.6825 30.2838 19.6732 30.2924 19.6624 30.2985C19.6516 30.3046 19.6395 30.3081 19.6271 30.3087C19.6147 30.3093 19.6023 30.3069 19.591 30.3017C19.5073 30.264 19.4346 30.3132 19.373 30.4496" stroke="#D9A03B" stroke-width="0.24636"/>
<path d="M22.6114 4.46359L22.5609 4.53011C22.5494 4.54508 22.5348 4.55728 22.5181 4.56581C22.5015 4.57434 22.4833 4.57897 22.4648 4.57938C21.6531 4.59047 20.8056 4.69271 19.9951 4.81589C14.7723 5.61163 10.206 8.52237 7.2435 12.8916C7.22678 12.9165 7.21957 12.9466 7.22319 12.9762C7.22682 13.0059 7.24103 13.0331 7.26321 13.0529C7.34533 13.126 7.42334 13.1067 7.49725 12.995C7.89717 12.3898 8.39523 11.755 8.99142 11.0907C9.34864 10.6928 9.8389 10.3368 10.2491 9.93894C10.2565 9.93134 10.2661 9.92644 10.2758 9.92529C10.2855 9.92414 10.2945 9.92683 10.3008 9.93278L10.3279 9.95865C10.3305 9.96116 10.3325 9.96417 10.3339 9.96751C10.3352 9.97084 10.3358 9.97442 10.3357 9.97801C10.3356 9.98161 10.3347 9.98514 10.3332 9.98838C10.3316 9.99162 10.3294 9.9945 10.3267 9.99683L10.1493 10.141C10.0335 10.2354 10.0463 10.2588 10.1875 10.2112C10.4109 10.1356 10.6194 10.196 10.8133 10.3922C10.8279 10.4073 10.8461 10.4184 10.8662 10.4245C10.8862 10.4305 10.9075 10.4313 10.9278 10.4267L11.5597 10.2851C11.589 10.2788 11.6149 10.2616 11.6324 10.237C11.7605 10.0572 12.3481 9.82808 12.5476 9.74062C12.5632 9.73398 12.58 9.73056 12.5969 9.73056C12.6138 9.73056 12.6306 9.73398 12.6462 9.74062C12.7135 9.77018 12.7423 9.75171 12.7324 9.68519C12.8498 9.56447 12.9915 9.5074 13.1574 9.51397C10.7348 11.1868 8.88179 13.3461 7.59826 15.992C7.56541 16.0602 7.53502 16.0593 7.5071 15.9895C7.48575 15.937 7.43977 15.9378 7.36914 15.992C7.34458 16.0118 7.31273 16.0211 7.28045 16.0179C7.1893 16.008 7.11293 16.0277 7.05134 16.077C6.97332 16.1394 6.93062 16.1205 6.92323 16.0203C6.90681 15.7764 6.73764 15.7116 6.41573 15.8257C6.341 15.8528 6.25108 15.9337 6.14597 16.0684C6.13333 16.0848 6.11676 16.0977 6.09779 16.106C6.07881 16.1143 6.05805 16.1177 6.03743 16.1159C6.0168 16.1141 5.99697 16.107 5.97977 16.0955C5.96257 16.084 5.94856 16.0683 5.93902 16.0499L5.85403 15.8836C5.85403 15.8146 5.83145 15.7653 5.78628 15.7358C5.77436 15.7279 5.76088 15.7228 5.74677 15.7206C5.73266 15.7185 5.71825 15.7194 5.70455 15.7234C5.69084 15.7274 5.67816 15.7343 5.66739 15.7437C5.65662 15.7531 5.64801 15.7646 5.64216 15.7777C4.62839 18.0762 4.11843 20.828 4.26501 23.3692C4.26583 23.3926 4.26029 23.4156 4.249 23.4358C4.1098 23.6883 4.25392 24.7636 4.28718 25.0925C4.7528 29.8103 6.70972 33.787 10.1579 37.0225C10.2466 37.1063 10.2799 37.2249 10.2577 37.3785C6.0117 33.6683 3.71316 28.1671 3.88931 22.5969C4.20835 12.5134 12.5439 4.52641 22.6114 4.46359Z" fill="white"/>
<path d="M22.6118 4.46359C27.057 4.47755 31.009 5.85306 34.4679 8.59012C34.3558 8.78844 34.1919 8.71946 34.0515 8.59381C33.8971 8.45421 33.689 8.29572 33.427 8.11834C31.0927 6.53794 28.4111 5.37143 25.6445 4.9945C25.0113 4.90827 24.3794 4.77893 23.7377 4.83929C23.5886 4.85284 22.581 4.69394 22.5428 4.85407C22.5413 4.8599 22.5412 4.86599 22.5424 4.87189C22.5436 4.87778 22.5461 4.88332 22.5498 4.88807C22.5535 4.89283 22.5582 4.89668 22.5636 4.89933C22.5691 4.90197 22.575 4.90335 22.581 4.90334C22.9087 4.90827 23.2511 4.95138 23.5566 4.96001C26.292 5.04213 28.873 5.71962 31.2997 6.99248C32.0991 7.41129 33.0242 8.00132 33.5034 8.37948C33.7005 8.53469 33.9107 8.67224 34.1341 8.79213C34.1624 8.80712 34.1956 8.81023 34.2264 8.80076L34.2695 8.78844C34.4149 8.74656 34.4264 8.77037 34.304 8.85988C33.8737 9.17605 33.5169 9.56242 33.2336 10.019C33.2238 10.035 33.2104 10.0485 33.1945 10.0585C33.1786 10.0685 33.1607 10.0748 33.142 10.0768C33.1234 10.0788 33.1045 10.0765 33.0869 10.0702C33.0692 10.0638 33.0533 10.0534 33.0402 10.0399C32.6608 9.6507 32.0843 9.38093 31.7628 9.1666C29.6207 7.73771 27.3456 7.04791 24.7453 6.65496C24.3068 6.58845 23.8153 6.61555 23.3496 6.58968C22.055 6.51577 20.6656 6.69069 19.3906 6.90871C17.1512 7.2918 15.0178 8.21442 13.1577 9.51397C12.9919 9.5074 12.8502 9.56447 12.7328 9.68519C12.7426 9.75171 12.7139 9.77018 12.6465 9.74062C12.631 9.73398 12.6142 9.73056 12.5973 9.73056C12.5803 9.73056 12.5636 9.73398 12.548 9.74062C12.3485 9.82808 11.7609 10.0572 11.6328 10.237C11.6153 10.2616 11.5894 10.2788 11.5601 10.2851L10.9282 10.4267C10.9078 10.4313 10.8866 10.4305 10.8666 10.4245C10.8465 10.4184 10.8283 10.4073 10.8136 10.3922C10.6198 10.196 10.4112 10.1356 10.1879 10.2112C10.0466 10.2588 10.0339 10.2354 10.1497 10.141L10.3271 9.99683C10.3298 9.9945 10.332 9.99162 10.3336 9.98838C10.3351 9.98514 10.336 9.98161 10.3361 9.97801C10.3362 9.97442 10.3356 9.97084 10.3342 9.96751C10.3329 9.96417 10.3309 9.96116 10.3283 9.95865L10.3012 9.93278C10.2948 9.92683 10.2859 9.92414 10.2762 9.92529C10.2665 9.92644 10.2569 9.93134 10.2495 9.93894C9.83928 10.3368 9.34902 10.6928 8.9918 11.0907C8.39561 11.755 7.89755 12.3898 7.49763 12.995C7.42372 13.1067 7.34571 13.126 7.26359 13.0529C7.24141 13.0331 7.22719 13.0059 7.22357 12.9762C7.21995 12.9466 7.22716 12.9165 7.24388 12.8916C10.2064 8.52237 14.7726 5.61163 19.9955 4.81589C20.806 4.69271 21.6535 4.59047 22.4652 4.57938C22.4837 4.57897 22.5019 4.57434 22.5185 4.56581C22.5352 4.55728 22.5498 4.54508 22.5613 4.53011L22.6118 4.46359Z" fill="white"/>
<path d="M34.4678 8.59019C34.5557 8.63454 34.621 8.70188 34.6637 8.79221C34.6736 8.81326 34.6774 8.8367 34.6746 8.85981C34.6717 8.88292 34.6624 8.90475 34.6477 8.92278L33.3025 10.566C33.2823 10.591 33.2528 10.6068 33.2206 10.61C33.1883 10.6132 33.1558 10.6036 33.1301 10.5832C31.1789 9.01886 28.983 7.94966 26.5424 7.37564C14.6568 4.57946 4.19019 15.131 6.65995 26.9649C6.4604 26.9247 6.40907 27.0187 6.50597 27.247C6.6156 27.5057 6.58358 27.7939 6.68951 28.081C6.9174 28.7042 7.07507 29.2832 7.45815 30.1627C8.11717 31.6753 9.00037 33.0316 10.0474 34.3163C10.0958 34.3754 10.0823 34.4095 10.0067 34.4186C9.91149 34.4301 9.81787 34.3048 9.7259 34.0429C9.71865 34.0219 9.7059 34.0032 9.68894 33.9887L9.42903 33.7743C9.40275 33.753 9.38879 33.7591 9.38715 33.7928C9.38469 33.8261 9.40563 33.8827 9.43519 33.9111C9.66554 34.1365 10.9047 35.3498 9.58793 35.0406C9.38017 34.9913 9.25124 35.0476 9.20115 35.2094C9.19254 35.2373 9.19413 35.2674 9.20564 35.2942C9.21714 35.3211 9.23782 35.3429 9.26397 35.356C9.5711 35.5087 9.58383 35.6532 9.30216 35.7896C9.278 35.8013 9.25072 35.8049 9.22447 35.7998C9.19823 35.7947 9.17447 35.7811 9.15681 35.7612C8.53351 35.0616 7.97058 34.3167 7.46801 33.5267C7.40765 33.4319 7.28817 33.3506 7.22411 33.2447C6.29944 31.7221 5.58254 30.1064 5.07339 28.3975C5.05861 28.3466 5.04136 28.2555 5.02166 28.1241C4.9884 27.8888 4.85167 27.6695 4.81964 27.4651C4.63077 26.2743 4.51415 25.4626 4.46981 25.0298C4.33513 23.7372 4.32815 22.4434 4.44887 21.1484C4.45544 21.0745 4.47884 20.9747 4.51908 20.8491C4.59053 20.6273 4.58806 20.2529 4.61024 20.1149C4.8451 18.6532 5.2598 17.2428 5.85435 15.8837L5.93935 16.05C5.94888 16.0684 5.96289 16.084 5.98009 16.0956C5.99729 16.1071 6.01712 16.1141 6.03775 16.116C6.05838 16.1178 6.07914 16.1144 6.09811 16.1061C6.11708 16.0978 6.13365 16.0849 6.14629 16.0684C6.2514 15.9338 6.34132 15.8529 6.41605 15.8258C6.73796 15.7116 6.90713 15.7765 6.92355 16.0204C6.93094 16.1206 6.97365 16.1395 7.05166 16.0771C7.11325 16.0278 7.18962 16.0081 7.28078 16.0179C7.31305 16.0211 7.3449 16.0118 7.36946 15.9921C7.44009 15.9379 7.48608 15.9371 7.50743 15.9896C7.53535 16.0594 7.56573 16.0602 7.59858 15.9921C8.88211 13.3462 10.7352 11.1868 13.1577 9.51404C15.0177 8.2145 17.1512 7.29188 19.3906 6.90879C20.6655 6.69076 22.055 6.51584 23.3496 6.58975C23.8152 6.61562 24.3067 6.58852 24.7452 6.65504C27.3456 7.04798 29.6207 7.73779 31.7628 9.16668C32.0843 9.38101 32.6608 9.65077 33.0402 10.04C33.0532 10.0535 33.0692 10.0638 33.0868 10.0702C33.1044 10.0766 33.1233 10.0789 33.142 10.0769C33.1606 10.0748 33.1786 10.0686 33.1945 10.0586C33.2103 10.0486 33.2237 10.0351 33.2336 10.0191C33.5169 9.56249 33.8737 9.17612 34.304 8.85996C34.4263 8.77045 34.4148 8.74663 34.2695 8.78851L34.2264 8.80083C34.1955 8.8103 34.1623 8.8072 34.134 8.79221C33.9106 8.67231 33.7004 8.53476 33.5033 8.37956C33.0241 8.00139 32.0991 7.41136 31.2996 6.99255C28.873 5.71969 26.292 5.0422 23.5565 4.96008C23.251 4.95146 22.9086 4.90835 22.581 4.90342C22.5749 4.90342 22.569 4.90205 22.5636 4.8994C22.5582 4.89675 22.5535 4.8929 22.5498 4.88815C22.5461 4.88339 22.5435 4.87785 22.5423 4.87196C22.5411 4.86607 22.5413 4.85997 22.5428 4.85415C22.581 4.69401 23.5886 4.85292 23.7376 4.83937C24.3794 4.77901 25.0113 4.90835 25.6444 4.99457C28.4111 5.3715 31.0927 6.53802 33.4269 8.11841C33.6889 8.29579 33.8971 8.45429 34.0515 8.59389C34.1919 8.71953 34.3557 8.78851 34.4678 8.59019Z" fill="white"/>
<path d="M30.9991 24.207C30.8332 24.202 30.699 24.2739 30.5963 24.4225C28.0219 28.1491 25.4445 31.8749 22.8643 35.5999C22.8529 35.6163 22.8377 35.6297 22.8199 35.639C22.8021 35.6482 22.7824 35.653 22.7624 35.6528C22.7424 35.6527 22.7227 35.6477 22.705 35.6383C22.6874 35.6288 22.6723 35.6152 22.6611 35.5986C20.094 31.8737 17.5158 28.1467 14.9266 24.4176C14.8527 24.3104 14.5645 24.1146 14.865 24.117C14.8835 24.1175 14.9017 24.122 14.9183 24.1303C14.9349 24.1386 14.9495 24.1505 14.9611 24.1651C15.4686 24.8142 15.8985 25.5127 16.3937 26.168C17.437 27.5439 18.3633 29.0418 19.3734 30.4497C20.3305 31.9279 21.3997 33.3371 22.3309 34.8337C22.4352 35.0004 22.5638 35.1515 22.7165 35.287C22.7296 35.2986 22.7451 35.3072 22.7618 35.3124C22.7786 35.3175 22.7962 35.319 22.8136 35.3168C22.8309 35.3146 22.8476 35.3087 22.8625 35.2995C22.8774 35.2904 22.8902 35.2781 22.9 35.2636L26.3121 30.2477C27.6556 28.3803 28.9617 26.4907 30.2305 24.579C30.283 24.5001 30.3549 24.4299 30.446 24.3683C30.5019 24.3306 30.5569 24.2903 30.6111 24.2476C30.6263 24.2359 30.6386 24.2208 30.6469 24.2034C30.6552 24.1861 30.6593 24.167 30.6588 24.1478C30.6583 24.1286 30.6533 24.1098 30.6441 24.0929C30.635 24.076 30.622 24.0615 30.6062 24.0505C30.2999 23.8346 30.0929 23.6038 29.9853 23.3583C29.8655 23.084 29.6914 22.7851 29.4631 22.4615C29.39 22.358 29.3382 22.2258 29.3079 22.0649C29.3048 22.0478 29.2981 22.0316 29.2884 22.0174C29.2786 22.0032 29.2659 21.9912 29.2512 21.9823C29.1108 21.8986 29.0689 21.715 28.9937 21.6165C28.6451 21.162 28.4247 20.6545 28.1167 20.1888C27.6154 19.4301 27.1916 18.5481 26.6755 17.7807C26.5802 17.6394 26.4883 17.497 26.3996 17.3532C26.3918 17.34 26.3814 17.3283 26.3689 17.319C26.3564 17.3097 26.3421 17.3029 26.3269 17.299C26.1955 17.2629 26.1081 17.1861 26.0645 17.0687C26.0571 17.049 26.0456 17.0322 26.03 17.0182L25.5854 16.6351C25.568 16.62 25.5468 16.61 25.5241 16.6063C25.5015 16.6025 25.4783 16.6053 25.4573 16.6142L24.7933 16.8975C24.7727 16.9063 24.7498 16.9092 24.7274 16.9057C24.705 16.9022 24.6839 16.8926 24.6664 16.8778C24.4275 16.677 24.3634 16.3481 24.223 16.1621C23.9577 15.8123 23.6576 15.4924 23.3225 15.2025L22.8902 14.7357C22.8679 14.7119 22.8372 14.6979 22.8046 14.6967C22.7721 14.6956 22.7404 14.7074 22.7165 14.7295C22.3782 15.0399 22.0969 15.3955 21.8727 15.7962C21.7397 15.8275 21.6259 15.8952 21.5315 15.9995C21.5109 16.0217 21.4833 16.0357 21.4539 16.0389L21.0437 16.0857C21.0138 16.089 20.9862 16.1032 20.966 16.1257C20.9458 16.1482 20.9345 16.1773 20.9341 16.2077L20.9304 16.491C20.9302 16.5074 20.9268 16.5236 20.9203 16.5386C20.9138 16.5537 20.9044 16.5673 20.8926 16.5786C20.8808 16.59 20.8668 16.5989 20.8515 16.6047C20.8362 16.6106 20.8199 16.6134 20.8035 16.6129C20.319 16.5973 19.8924 16.7414 19.5237 17.0453C19.4013 17.1455 19.258 17.2756 19.0938 17.4358C18.8634 17.6612 18.7698 17.9802 18.5185 18.229C18.4955 18.2512 18.3732 18.4064 18.1515 18.6947C18.0923 18.771 18.071 18.7534 18.0874 18.6417C18.0914 18.6147 18.1044 18.5899 18.1244 18.5715C18.1572 18.5395 18.1568 18.5181 18.1231 18.5074C18.1118 18.5038 18.1015 18.4976 18.0929 18.4894C18.0843 18.4812 18.0777 18.4711 18.0736 18.46C18.0694 18.4488 18.0679 18.4369 18.069 18.4251C18.0701 18.4132 18.0739 18.4018 18.08 18.3916C19.5869 15.8763 21.093 13.3606 22.5982 10.8444C22.6722 10.72 22.6512 10.6338 22.5761 10.5254C22.6541 10.4244 22.7403 10.4527 22.8348 10.6104C25.5472 15.1327 28.2686 19.6649 30.9991 24.207Z" fill="white"/>
<path d="M35.9203 10.8628C36.05 10.7347 36.1876 10.6095 36.3329 10.4871C36.3569 10.467 36.3876 10.4567 36.4187 10.4583C36.4499 10.4599 36.4791 10.4733 36.5005 10.4957C37.0728 11.0878 37.598 11.7197 38.0759 12.3915C38.0949 12.4183 38.1026 12.4516 38.0973 12.4839C38.092 12.5162 38.0741 12.545 38.0476 12.5639L36.3231 13.7994C36.2977 13.8174 36.2664 13.8251 36.2356 13.821C36.2047 13.8169 36.1766 13.8013 36.1568 13.7772L34.7722 12.0934C34.7525 12.0696 34.7425 12.0392 34.7444 12.0083C34.7462 11.9774 34.7597 11.9484 34.7821 11.9271C34.994 11.7226 35.2141 11.5198 35.4423 11.3186C35.5557 11.2192 35.715 11.0673 35.9203 10.8628Z" fill="white"/>
<path d="M22.5758 10.5253C22.6509 10.6337 22.6718 10.7199 22.5979 10.8443C21.0927 13.3605 19.5866 15.8762 18.0797 18.3915C18.0735 18.4017 18.0698 18.4131 18.0687 18.425C18.0675 18.4368 18.0691 18.4487 18.0733 18.4599C18.0774 18.471 18.084 18.481 18.0926 18.4893C18.1012 18.4975 18.1115 18.5037 18.1228 18.5073C18.1565 18.518 18.1569 18.5394 18.124 18.5714C18.1041 18.5898 18.091 18.6146 18.0871 18.6416C18.0707 18.7533 18.092 18.7709 18.1511 18.6946C18.3729 18.4063 18.4952 18.2511 18.5182 18.2289C18.7695 17.9801 18.8631 17.6611 19.0935 17.4357C19.2577 17.2755 19.401 17.1454 19.5234 17.0452C19.8921 16.7413 20.3187 16.5972 20.8032 16.6128C20.8196 16.6133 20.8359 16.6105 20.8512 16.6046C20.8665 16.5987 20.8804 16.5899 20.8923 16.5785C20.9041 16.5671 20.9135 16.5535 20.92 16.5385C20.9265 16.5235 20.9299 16.5073 20.9301 16.4909L20.9338 16.2076C20.9342 16.1772 20.9455 16.1481 20.9657 16.1256C20.9859 16.1031 21.0135 16.0889 21.0434 16.0856L21.4536 16.0388C21.483 16.0356 21.5105 16.0216 21.5312 15.9994C21.6256 15.8951 21.7394 15.8273 21.8724 15.7961C19.7898 19.2435 18.3297 21.6825 17.4921 23.113C17.3189 23.4087 17.4034 23.5635 17.7459 23.5774L17.7767 23.6082C17.2876 23.7141 17.5229 23.9667 17.7804 24.0812C19.1756 24.707 20.572 25.3311 21.9697 25.9536C22.2814 26.0927 22.5253 26.2036 22.8776 26.0878C23.1091 26.0127 23.3272 25.9572 23.5489 25.8525C24.9667 25.1787 26.419 24.5949 27.8442 23.9383C27.8586 23.9318 27.8701 23.9201 27.8763 23.9054C27.8825 23.8908 27.8829 23.8744 27.8774 23.8595L27.8651 23.8275C27.8602 23.8138 27.8583 23.7992 27.8596 23.7847C27.8609 23.7702 27.8654 23.7562 27.8727 23.7438C27.88 23.7313 27.8899 23.7206 27.9018 23.7125C27.9137 23.7044 27.9273 23.6991 27.9415 23.6969C28.2133 23.6525 28.2437 23.5023 28.0326 23.2461C27.9747 23.1758 27.9784 22.9714 27.907 22.8556C26.3607 20.3189 24.8324 17.7678 23.3222 15.2024C23.6573 15.4923 23.9574 15.8122 24.2227 16.162C24.3631 16.348 24.4272 16.6769 24.6661 16.8777C24.6836 16.8925 24.7047 16.9021 24.7271 16.9056C24.7495 16.9091 24.7723 16.9062 24.793 16.8974L25.4569 16.6141C25.478 16.6052 25.5012 16.6024 25.5238 16.6061C25.5465 16.6098 25.5677 16.6198 25.585 16.635L26.0297 17.0181C26.0453 17.032 26.0568 17.0489 26.0642 17.0686C26.1077 17.186 26.1952 17.2628 26.3266 17.2989C26.3418 17.3028 26.3561 17.3096 26.3686 17.3189C26.3811 17.3282 26.3915 17.3399 26.3993 17.3531C26.488 17.4968 26.5799 17.6393 26.6752 17.7806C27.1913 18.548 27.6151 19.4299 28.1164 20.1887C28.4243 20.6544 28.6448 21.1619 28.9934 21.6164C29.0686 21.7149 29.1105 21.8985 29.2509 21.9822C29.2656 21.9911 29.2783 22.0031 29.2881 22.0173C29.2978 22.0315 29.3045 22.0477 29.3075 22.0648C29.3379 22.2257 29.3897 22.3579 29.4627 22.4614C29.691 22.785 29.8651 23.0839 29.985 23.3582C30.0926 23.6037 30.2995 23.8344 30.6059 24.0504C30.6217 24.0613 30.6347 24.0759 30.6438 24.0928C30.653 24.1097 30.658 24.1285 30.6585 24.1477C30.6589 24.1669 30.6549 24.186 30.6466 24.2033C30.6383 24.2207 30.626 24.2358 30.6108 24.2475C30.5566 24.2902 30.5016 24.3305 30.4457 24.3682C30.3546 24.4298 30.2827 24.5 30.2302 24.5789C28.9614 26.4906 27.6553 28.3802 26.3118 30.2476C26.2634 29.8838 26.0958 29.697 25.8092 29.6871C25.5641 29.6797 25.1896 29.6945 25.1022 29.4297C25.0669 29.3238 25.096 29.2359 25.1896 29.1661C25.2036 29.1556 25.2152 29.1423 25.2237 29.127C25.2322 29.1117 25.2374 29.0948 25.2389 29.0774L25.2438 29.0269C25.2504 28.9439 25.2307 28.937 25.1847 29.0059C24.7051 29.713 23.9874 30.714 23.0315 32.0091C22.9469 32.124 22.8513 32.1774 22.7445 32.1692C22.6452 32.1618 22.6427 32.1532 22.7371 32.1433C22.7971 32.1368 22.8172 32.0974 22.7975 32.0251C22.7929 32.0077 22.792 31.9895 22.795 31.9719C22.798 31.9542 22.8047 31.9375 22.8147 31.9229L26.0334 27.2851C26.0507 27.2591 26.0777 27.241 26.1086 27.2346C26.483 27.155 26.5742 26.978 26.382 26.7037C26.3704 26.6867 26.3545 26.6729 26.336 26.6637C26.3175 26.6544 26.2969 26.65 26.2761 26.6508C25.9952 26.6622 25.7255 26.7251 25.4668 26.8392C24.6431 27.2022 23.7525 27.6009 22.795 28.0353C22.7788 28.0426 22.7611 28.0463 22.7433 28.0461C22.7254 28.0459 22.7077 28.0418 22.6915 28.0341C21.8416 27.6309 20.9539 27.2244 20.0284 26.8146C19.7558 26.693 19.5447 26.6216 19.3953 26.6002C19.3644 26.5955 19.3327 26.603 19.3066 26.6212C18.9756 26.8561 19.0183 27.0133 19.4347 27.093L19.4704 27.1804C19.399 27.1624 19.3283 27.1587 19.2585 27.1693C19.2405 27.1723 19.2233 27.1792 19.2082 27.1894C19.1931 27.1997 19.1805 27.2131 19.1712 27.2288C19.1619 27.2444 19.1562 27.2619 19.1544 27.2799C19.1527 27.298 19.155 27.3161 19.1612 27.3332C19.2203 27.4949 19.3016 27.6419 19.4051 27.7742C19.5866 28.0049 19.6983 28.1552 19.7402 28.225C19.9927 28.6475 20.3376 29.0294 20.5507 29.4716C20.6106 29.5964 20.6784 29.7179 20.7539 29.8362C20.7679 29.8581 20.7729 29.8845 20.7678 29.9098C20.7627 29.9351 20.748 29.9573 20.7268 29.9717L20.6948 29.9926C20.6711 30.0089 20.6537 30.0329 20.6459 30.0606C20.638 30.0883 20.64 30.1178 20.6517 30.1441C20.7535 30.3757 20.7322 30.3897 20.5876 30.186C20.5762 30.1701 20.5611 30.1572 20.5435 30.1484C20.5259 30.1396 20.5064 30.1351 20.4866 30.1355H19.7833C19.7637 30.1359 19.745 30.1432 19.7306 30.1561C19.7161 30.169 19.7068 30.1866 19.7044 30.2057L19.702 30.239C19.7006 30.2513 19.6962 30.2632 19.6894 30.2735C19.6825 30.2839 19.6733 30.2925 19.6625 30.2986C19.6517 30.3047 19.6396 30.3082 19.6272 30.3088C19.6148 30.3093 19.6024 30.3069 19.5911 30.3018C19.5073 30.264 19.4347 30.3133 19.3731 30.4496C18.363 29.0417 17.4367 27.5438 16.3934 26.1679C15.8982 25.5126 15.4683 24.8141 14.9608 24.165C14.9492 24.1504 14.9346 24.1385 14.918 24.1302C14.9014 24.1219 14.8832 24.1174 14.8647 24.1169C14.5641 24.1145 14.8524 24.3103 14.9263 24.4175C17.5155 28.1466 20.0937 31.8736 22.6608 35.5985C22.672 35.6151 22.687 35.6287 22.7047 35.6382C22.7224 35.6476 22.742 35.6526 22.7621 35.6527C22.7821 35.6528 22.8018 35.6481 22.8196 35.6389C22.8373 35.6296 22.8526 35.6162 22.864 35.5998C25.4442 31.8748 28.0215 28.149 30.596 24.4224C30.6987 24.2738 30.8329 24.2019 30.9988 24.2069L22.8652 35.9903C22.8537 36.0066 22.8383 36.02 22.8206 36.0293C22.8028 36.0385 22.783 36.0434 22.7631 36.0434C22.7431 36.0434 22.7235 36.0385 22.7059 36.0293C22.6883 36.02 22.6732 36.0066 22.662 35.9903L14.4705 24.1601C14.457 24.1407 14.4494 24.1177 14.4488 24.0939C14.4481 24.07 14.4544 24.0464 14.4668 24.0258L22.5758 10.5253Z" fill="white"/>
<path d="M39.2828 14.5078C39.2976 14.4999 39.3139 14.4951 39.3307 14.4938C39.3475 14.4924 39.3644 14.4945 39.3803 14.5C39.3962 14.5054 39.4109 14.514 39.4233 14.5253C39.4358 14.5366 39.4458 14.5504 39.4528 14.5657L40.4579 16.7928C40.4648 16.8081 40.4685 16.8247 40.4686 16.8416C40.4688 16.8584 40.4655 16.8752 40.4589 16.8908C40.4523 16.9063 40.4426 16.9204 40.4304 16.9322C40.4181 16.9439 40.4036 16.9531 40.3877 16.9591L38.3392 17.7154C38.3097 17.726 38.2773 17.7252 38.2485 17.7131C38.2197 17.701 38.1967 17.6785 38.184 17.6501L37.302 15.6817C37.2894 15.6531 37.2881 15.6208 37.2984 15.5913C37.3087 15.5618 37.3298 15.5373 37.3575 15.5228L39.2828 14.5078Z" fill="white"/>
<path d="M23.3227 15.2025C24.8329 17.7679 26.3611 20.319 27.9075 22.8557C27.9789 22.9714 27.9752 23.1759 28.0331 23.2461C28.2442 23.5023 28.2138 23.6526 27.942 23.697C27.9277 23.6991 27.9142 23.7045 27.9023 23.7126C27.8904 23.7207 27.8805 23.7313 27.8732 23.7438C27.8659 23.7563 27.8614 23.7703 27.8601 23.7848C27.8588 23.7992 27.8606 23.8139 27.8656 23.8275L27.8779 23.8596C27.8833 23.8745 27.8829 23.8909 27.8768 23.9055C27.8706 23.9201 27.8591 23.9319 27.8446 23.9384C26.4194 24.595 24.9672 25.1788 23.5494 25.8526C23.3276 25.9573 23.1096 26.0128 22.878 26.0879C22.5257 26.2037 22.2818 26.0928 21.9702 25.9536C20.5725 25.3312 19.1761 24.707 17.7808 24.0813C17.5234 23.9667 17.2881 23.7142 17.7771 23.6083L22.6021 25.759C22.6176 25.766 22.6345 25.7696 22.6517 25.7696C22.6689 25.7696 22.686 25.766 22.7019 25.759L27.6389 23.5664C27.6549 23.5593 27.6691 23.5489 27.6808 23.5359C27.6924 23.5228 27.7011 23.5075 27.7064 23.4908C27.7116 23.4742 27.7132 23.4566 27.7112 23.4392C27.7091 23.4219 27.7034 23.4052 27.6944 23.3903L22.862 15.3404C22.8513 15.3222 22.8361 15.3071 22.8177 15.2966C22.7994 15.2861 22.7785 15.2806 22.7573 15.2806C22.7361 15.2806 22.7151 15.2861 22.6966 15.2966C22.678 15.3071 22.6624 15.3222 22.6514 15.3404L17.7599 23.4925C17.751 23.5078 17.7463 23.5257 17.7464 23.5442V23.5775C17.4039 23.5635 17.3193 23.4087 17.4926 23.1131C18.3302 21.6826 19.7903 19.2436 21.8729 15.7962C22.0971 15.3955 22.3783 15.0399 22.7167 14.7295C22.7405 14.7073 22.7722 14.6955 22.8048 14.6967C22.8373 14.6979 22.8681 14.7119 22.8903 14.7356L23.3227 15.2025Z" fill="white"/>
<path d="M5.85401 15.8836C5.25946 17.2427 4.84476 18.6531 4.60989 20.1149C4.58772 20.2528 4.59018 20.6273 4.51874 20.849C4.4785 20.9747 4.4551 21.0744 4.44853 21.1484C4.32781 22.4434 4.33479 23.7372 4.46947 25.0297C4.51381 25.4625 4.63042 26.2743 4.8193 27.465C4.85133 27.6695 4.98806 27.8888 5.02131 28.124C5.04102 28.2554 5.05827 28.3466 5.07305 28.3975C5.58219 30.1064 6.2991 31.7221 7.22377 33.2446C7.28782 33.3506 7.40731 33.4319 7.46767 33.5267C7.97024 34.3167 8.53317 35.0615 9.15646 35.7612C9.17413 35.7811 9.19789 35.7946 9.22413 35.7997C9.25037 35.8049 9.27765 35.8013 9.30182 35.7895C9.58349 35.6532 9.57076 35.5087 9.26363 35.3559C9.23748 35.3429 9.2168 35.321 9.2053 35.2942C9.19379 35.2673 9.1922 35.2373 9.20081 35.2093C9.2509 35.0476 9.37983 34.9913 9.58759 35.0406C10.9044 35.3498 9.6652 34.1364 9.43485 33.911C9.40529 33.8827 9.38435 33.826 9.38681 33.7928C9.38845 33.7591 9.40241 33.7529 9.42869 33.7743L9.6886 33.9886C9.70555 34.0031 9.71831 34.0218 9.72555 34.0428C9.81753 34.3048 9.91115 34.43 10.0064 34.4185C10.082 34.4095 10.0955 34.3754 10.0471 34.3163C9.00003 33.0315 8.11682 31.6753 7.45781 30.1627C7.07472 29.2832 6.91705 28.7042 6.68917 28.0809C6.58324 27.7939 6.61526 27.5057 6.50563 27.247C6.40873 27.0187 6.46006 26.9247 6.65961 26.9649C9.44594 39.0698 23.8641 43.859 33.3404 35.8351C36.1858 33.4257 38.1124 30.0949 38.8367 26.4451C39.2678 24.2755 39.2456 22.0681 38.7701 19.8229C38.7632 19.7911 38.7691 19.7578 38.7867 19.7303C38.8042 19.7028 38.8319 19.6834 38.8638 19.6764L41.0342 19.1935C41.0502 19.19 41.0668 19.1896 41.083 19.1924C41.0991 19.1952 41.1145 19.2012 41.1282 19.2099C41.142 19.2186 41.1538 19.2299 41.163 19.2431C41.1723 19.2564 41.1787 19.2713 41.182 19.2871C43.536 30.1232 36.2918 40.5061 25.3509 42.031C19.8657 42.7948 14.3719 41.0468 10.2577 37.3785C10.2799 37.225 10.2466 37.1063 10.1579 37.0225C6.7097 33.787 4.75278 29.8104 4.28716 25.0926C4.2539 24.7637 4.10978 23.6883 4.24898 23.4358C4.26027 23.4156 4.26581 23.3926 4.26499 23.3693C4.11841 20.8281 4.62837 18.0762 5.64214 15.7777C5.64799 15.7647 5.6566 15.7531 5.66737 15.7437C5.67814 15.7344 5.69082 15.7275 5.70453 15.7235C5.71823 15.7195 5.73264 15.7185 5.74675 15.7207C5.76086 15.7228 5.77434 15.728 5.78626 15.7358C5.83143 15.7654 5.85401 15.8147 5.85401 15.8836Z" fill="white"/>
<path d="M26.312 30.2476L22.8999 35.2635C22.8901 35.278 22.8773 35.2903 22.8624 35.2995C22.8475 35.3086 22.8308 35.3145 22.8134 35.3167C22.7961 35.319 22.7784 35.3174 22.7617 35.3123C22.745 35.3072 22.7295 35.2985 22.7164 35.2869C22.5636 35.1514 22.4351 35.0003 22.3308 34.8336C21.3996 33.337 20.3304 31.9278 19.3733 30.4497C19.4349 30.3133 19.5075 30.2641 19.5913 30.3018C19.6026 30.307 19.615 30.3094 19.6274 30.3088C19.6398 30.3082 19.6519 30.3048 19.6627 30.2986C19.6735 30.2925 19.6827 30.2839 19.6896 30.2736C19.6964 30.2632 19.7007 30.2514 19.7022 30.239L19.7046 30.2058C19.707 30.1867 19.7163 30.1691 19.7307 30.1562C19.7452 30.1433 19.7639 30.136 19.7835 30.1356H20.4868C20.5066 30.1352 20.5261 30.1396 20.5437 30.1484C20.5613 30.1572 20.5764 30.1701 20.5878 30.1861C20.7324 30.3897 20.7537 30.3758 20.6519 30.1442C20.6402 30.1179 20.6382 30.0883 20.6461 30.0606C20.6539 30.0329 20.6712 30.0089 20.695 29.9927L20.727 29.9717C20.7482 29.9573 20.7629 29.9351 20.768 29.9098C20.773 29.8845 20.7681 29.8581 20.7541 29.8362C20.6786 29.718 20.6108 29.5964 20.5509 29.4716C20.3378 29.0294 19.9929 28.6475 19.7403 28.225C19.6985 28.1552 19.5868 28.0049 19.4053 27.7742C19.3018 27.642 19.2205 27.495 19.1614 27.3332C19.1552 27.3162 19.1529 27.298 19.1546 27.28C19.1564 27.2619 19.1621 27.2445 19.1714 27.2288C19.1806 27.2132 19.1933 27.1997 19.2084 27.1895C19.2235 27.1792 19.2407 27.1723 19.2587 27.1694C19.3285 27.1587 19.3991 27.1624 19.4706 27.1805L22.5673 31.6396C22.5785 31.6559 22.5936 31.6692 22.6111 31.6784C22.6287 31.6875 22.6482 31.6922 22.6681 31.6921C22.688 31.692 22.7076 31.687 22.7252 31.6777C22.7429 31.6683 22.758 31.6548 22.7693 31.6383L25.6924 27.412C25.8254 27.2191 25.7852 27.1702 25.5717 27.2655L22.8371 28.4837C22.8216 28.4907 22.8047 28.4943 22.7875 28.4943C22.7703 28.4943 22.7532 28.4907 22.7373 28.4837L19.4952 27.0326C19.4882 27.0297 19.4806 27.0287 19.4732 27.0298C19.4658 27.0309 19.4589 27.034 19.4533 27.0388C19.4361 27.0536 19.4299 27.0717 19.4349 27.093C19.0185 27.0134 18.9758 26.8561 19.3068 26.6212C19.3329 26.603 19.3646 26.5955 19.3954 26.6003C19.5449 26.6216 19.756 26.6931 20.0286 26.8146C20.9541 27.2244 21.8418 27.6309 22.6917 28.0341C22.7079 28.0418 22.7256 28.046 22.7435 28.0462C22.7613 28.0464 22.779 28.0427 22.7952 28.0353C23.7527 27.6009 24.6433 27.2022 25.467 26.8393C25.7257 26.7251 25.9954 26.6623 26.2763 26.6508C26.2971 26.65 26.3177 26.6544 26.3362 26.6637C26.3547 26.673 26.3706 26.6867 26.3822 26.7038C26.5744 26.978 26.4832 27.155 26.1087 27.2347C26.0779 27.241 26.0509 27.2591 26.0336 27.2852L22.8149 31.9229C22.8049 31.9375 22.7982 31.9543 22.7952 31.9719C22.7922 31.9896 22.7931 32.0077 22.7977 32.0251C22.8174 32.0974 22.7973 32.1368 22.7373 32.1434C22.6429 32.1532 22.6453 32.1619 22.7447 32.1693C22.8515 32.1775 22.9471 32.1241 23.0317 32.0091C23.9876 30.7141 24.7053 29.713 25.1849 29.006C25.2309 28.937 25.2506 28.944 25.244 29.0269L25.2391 29.0774C25.2376 29.0949 25.2324 29.1118 25.2239 29.127C25.2154 29.1423 25.2038 29.1556 25.1898 29.1661C25.0962 29.2359 25.0671 29.3238 25.1024 29.4297C25.1898 29.6946 25.5643 29.6798 25.8094 29.6872C26.096 29.697 26.2635 29.8839 26.312 30.2476Z" fill="white"/>
</svg>